<svg width="47" height="43" viewBox="0 0 31 29" fill="none" xmlns="http://www.w3.org/2000/svg">
<path fill-rule="evenodd" clip-rule="evenodd" d="M0 0.704738C0 0.315535 0.315501 2.27843e-05 0.704715 2.27843e-05H4.93301C5.25221 -0.00270094 5.55689 0.239105 5.62673 0.550582L6.25435 3.5236L6.55167 4.93303L8.48964 14.0944H27.2747L29.4219 4.93303C29.4219 4.93303 29.5363 4.15021 29.7083 3.875C29.8803 3.59979 30.3028 3.5236 30.3028 3.5236C30.7219 3.5266 31.0771 3.97348 30.9855 4.38247L28.519 14.9532C28.4499 15.2611 28.1518 15.5003 27.8363 15.5038H8.78692L9.38153 18.3226H26.4268C26.7991 18.3174 27.1416 18.655 27.1416 19.0274C27.1416 19.3997 26.7991 19.7374 26.4268 19.7321H8.80894C8.40616 19.7523 8.03335 19.3628 8.07118 18.9613L4.36043 1.40945H0.704715C0.315501 1.40945 0 1.09394 0 0.704738ZM9.51366 25.0174C9.51366 23.2743 10.9418 21.8462 12.6849 21.8462C14.428 21.8462 15.8561 23.2743 15.8561 25.0174C15.8561 26.7605 14.428 28.1886 12.6849 28.1886C10.9418 28.1886 9.51366 26.7605 9.51366 25.0174ZM19.3797 25.0174C19.3797 23.2743 20.8079 21.8462 22.5509 21.8462C24.294 21.8462 25.7221 23.2743 25.7221 25.0174C25.7221 26.7605 24.294 28.1886 22.5509 28.1886C20.8079 28.1886 19.3797 26.7605 19.3797 25.0174ZM14.4467 25.0174C14.4467 24.036 13.6662 23.2556 12.6849 23.2556C11.7036 23.2556 10.9231 24.036 10.9231 25.0174C10.9231 25.9988 11.7036 26.7792 12.6849 26.7792C13.6662 26.7792 14.4467 25.9988 14.4467 25.0174ZM24.3127 25.0174C24.3127 24.036 23.5322 23.2556 22.5509 23.2556C21.5696 23.2556 20.7891 24.036 20.7891 25.0174C20.7891 25.9988 21.5696 26.7792 22.5509 26.7792C23.5322 26.7792 24.3127 25.9988 24.3127 25.0174Z" fill="#332E4C"/>
</svg>
