<svg width="55" height="55" viewBox="0 0 55 55" fill="none" xmlns="http://www.w3.org/2000/svg">
<circle cx="27.5" cy="27.5" r="27.5" fill="white"/>
<circle cx="27.5" cy="27.5" r="21" stroke="#332E4C" stroke-dasharray="3 3"/>
<path d="M24.1464 27.0633L30.081 21.1451C30.2754 20.9513 30.5902 20.9516 30.7843 21.1461C30.9783 21.3405 30.9778 21.6555 30.7833 21.8495L25.202 27.4154L30.7835 32.9814C30.978 33.1753 30.9785 33.4901 30.7845 33.6846C30.6872 33.7821 30.5598 33.8308 30.4323 33.8308C30.3051 33.8308 30.1781 33.7824 30.081 33.6856L24.1464 27.7675C24.0527 27.6744 24.0002 27.5475 24.0002 27.4154C24.0002 27.2833 24.0529 27.1567 24.1464 27.0633Z" fill="#342553"/>
</svg>
