<svg width="55" height="55" viewBox="0 0 55 55" fill="none" xmlns="http://www.w3.org/2000/svg">
<circle r="27.5" transform="matrix(-1 0 0 1 27.5 27.5)" fill="white"/>
<circle r="21" transform="matrix(-1 0 0 1 27.5 27.5)" stroke="#332E4C" stroke-dasharray="3 3"/>
<path d="M30.8536 27.0633L24.919 21.1451C24.7246 20.9513 24.4098 20.9516 24.2157 21.1461C24.0217 21.3405 24.0222 21.6555 24.2167 21.8495L29.798 27.4154L24.2165 32.9814C24.022 33.1753 24.0215 33.4901 24.2155 33.6846C24.3128 33.7821 24.4402 33.8308 24.5677 33.8308C24.6949 33.8308 24.8219 33.7824 24.919 33.6856L30.8536 27.7675C30.9473 27.6744 30.9998 27.5475 30.9998 27.4154C30.9998 27.2833 30.9471 27.1567 30.8536 27.0633Z" fill="#342553"/>
</svg>
