<svg width="19" height="19" viewBox="0 0 17 16" fill="none" xmlns="http://www.w3.org/2000/svg">
<path fill-rule="evenodd" clip-rule="evenodd" d="M0 0.386469C0 0.173035 0.173017 1.24946e-05 0.386457 1.24946e-05H2.7052C2.88024 -0.00148116 3.04733 0.131122 3.08563 0.301932L3.42981 1.9323L3.59285 2.70521L4.65561 7.72916H14.9571L16.1346 2.70521C16.1346 2.70521 16.1973 2.27592 16.2917 2.125C16.386 1.97408 16.6176 1.9323 16.6176 1.9323C16.8475 1.93394 17.0423 2.17901 16.992 2.40329L15.6394 8.20016C15.6016 8.369 15.4381 8.50014 15.265 8.50208H4.81863L5.14471 10.0479H14.4921C14.6963 10.045 14.8841 10.2302 14.8841 10.4344C14.8841 10.6386 14.6963 10.8237 14.4921 10.8208H4.83071C4.60983 10.8319 4.40538 10.6183 4.42613 10.3981L2.3912 0.772926H0.386457C0.173017 0.772926 0 0.599904 0 0.386469ZM5.21717 13.7192C5.21717 12.7633 6.00036 11.9802 6.95622 11.9802C7.91211 11.9802 8.69528 12.7633 8.69528 13.7192C8.69528 14.6751 7.91211 15.4583 6.95622 15.4583C6.00036 15.4583 5.21717 14.6751 5.21717 13.7192ZM10.6276 13.7192C10.6276 12.7633 11.4108 11.9802 12.3666 11.9802C13.3225 11.9802 14.1057 12.7633 14.1057 13.7192C14.1057 14.6751 13.3225 15.4583 12.3666 15.4583C11.4108 15.4583 10.6276 14.6751 10.6276 13.7192ZM7.92237 13.7192C7.92237 13.1811 7.49438 12.7531 6.95622 12.7531C6.41808 12.7531 5.99008 13.1811 5.99008 13.7192C5.99008 14.2574 6.41808 14.6854 6.95622 14.6854C7.49438 14.6854 7.92237 14.2574 7.92237 13.7192ZM13.3328 13.7192C13.3328 13.1811 12.9048 12.7531 12.3666 12.7531C11.8285 12.7531 11.4005 13.1811 11.4005 13.7192C11.4005 14.2574 11.8285 14.6854 12.3666 14.6854C12.9048 14.6854 13.3328 14.2574 13.3328 13.7192Z" fill="white"/>
</svg>
