<svg width="17" height="19" viewBox="0 0 13 17" fill="none" xmlns="http://www.w3.org/2000/svg">
<path d="M0.263424 14.842C0.385146 14.9084 3.28179 16.4682 6.5 16.4682C9.98659 16.4682 12.635 14.9032 12.746 14.8366C12.7854 14.813 12.8179 14.7796 12.8405 14.7397C12.8631 14.6998 12.875 14.6547 12.875 14.6088C12.875 12.4641 12.2173 10.5016 11.0232 9.08242C10.1879 8.08965 9.13981 7.41297 7.98385 7.10145C8.69146 6.76471 9.26348 6.1973 9.60594 5.49244C9.9484 4.78758 10.0409 3.9872 9.86832 3.22279C9.69571 2.45839 9.26822 1.77543 8.65611 1.28613C8.04399 0.796823 7.28365 0.530273 6.5 0.530273C5.71635 0.530273 4.95601 0.796823 4.34389 1.28613C3.73178 1.77543 3.30429 2.45839 3.13168 3.22279C2.95907 3.9872 3.0516 4.78758 3.39406 5.49244C3.73652 6.1973 4.30854 6.76471 5.01615 7.10145C3.86019 7.41297 2.8121 8.08975 1.97677 9.08242C0.782654 10.5016 0.125 12.4641 0.125 14.6088C0.125 14.6565 0.137855 14.7034 0.162213 14.7444C0.186571 14.7854 0.221533 14.8191 0.263424 14.842ZM3.57812 3.98381C3.57812 3.40592 3.74949 2.84101 4.07055 2.36051C4.39161 1.88001 4.84794 1.5055 5.38185 1.28435C5.91575 1.0632 6.50324 1.00534 7.07003 1.11808C7.63682 1.23082 8.15745 1.5091 8.56608 1.91774C8.97471 2.32637 9.25299 2.847 9.36573 3.41378C9.47847 3.98057 9.42061 4.56806 9.19946 5.10197C8.97831 5.63587 8.60381 6.0922 8.12331 6.41326C7.64281 6.73432 7.07789 6.90569 6.5 6.90569C5.72534 6.90481 4.98266 6.59669 4.43489 6.04892C3.88713 5.50115 3.579 4.75847 3.57812 3.98381ZM2.38324 9.42444C3.46191 8.14277 4.92378 7.43694 6.5 7.43694C8.07622 7.43694 9.53809 8.14277 10.6168 9.42444C11.7019 10.714 12.312 12.4951 12.3426 14.4539C11.7741 14.7615 9.41218 15.9369 6.5 15.9369C3.80689 15.9369 1.27051 14.7546 0.657578 14.4476C0.689453 12.4912 1.29929 10.7126 2.38324 9.42444Z" fill="white"/>
</svg>
