<?xml version="1.0" standalone="no"?>
<!DOCTYPE svg PUBLIC "-//W3C//DTD SVG 20010904//EN"
 "http://www.w3.org/TR/2001/REC-SVG-20010904/DTD/svg10.dtd">
<svg version="1.0" xmlns="http://www.w3.org/2000/svg"
 width="359.000000pt" height="339.000000pt" viewBox="0 0 359.000000 339.000000"
 preserveAspectRatio="xMidYMid meet">

<g transform="translate(0.000000,339.000000) scale(0.100000,-0.100000)"
fill="#000000" stroke="none">
<path d="M0 1695 l0 -1695 1695 0 1695 0 0 1061 0 1061 51 56 c198 222 193
589 -10 787 l-41 39 0 193 0 193 -1695 0 -1695 0 0 -1695z m3320 1496 l0 -130
-65 30 c-221 104 -485 58 -660 -114 -280 -278 -205 -748 148 -929 61 -31 184
-58 262 -58 79 0 201 27 264 59 22 12 43 21 46 21 3 0 5 -450 5 -1000 l0
-1000 -1625 0 -1625 0 0 1625 0 1625 1625 0 1625 0 0 -129z m-157 -141 c182
-56 313 -216 339 -414 43 -324 -215 -600 -535 -573 -213 18 -378 150 -439 350
-17 57 -20 87 -16 182 4 110 6 117 47 200 65 131 159 214 291 256 79 26 228
25 313 -1z"/>
<path d="M910 2570 l0 -560 35 0 35 0 0 290 0 290 185 0 185 0 0 35 0 35 -185
0 -185 0 0 200 0 200 190 0 190 0 0 35 0 35 -225 0 -225 0 0 -560z"/>
<path d="M1590 2571 l0 -561 189 0 c161 0 199 3 254 20 83 26 155 88 187 162
33 75 33 183 1 256 -29 65 -99 129 -158 145 l-43 11 35 28 c76 63 109 196 76
311 -18 63 -77 128 -143 158 -48 21 -70 24 -225 27 l-173 4 0 -561z m325 478
c95 -26 148 -101 148 -209 0 -95 -33 -154 -106 -192 -30 -15 -68 -21 -163 -25
l-124 -6 0 221 0 222 103 0 c56 0 120 -5 142 -11z m120 -523 c90 -39 125 -97
125 -207 0 -84 -16 -124 -70 -173 -57 -52 -119 -66 -282 -66 l-138 0 0 236 0
236 163 -4 c126 -3 171 -8 202 -22z"/>
<path d="M1152 919 c-102 -22 -132 -155 -51 -224 58 -48 162 -27 194 41 48
102 -34 207 -143 183z m62 -43 c88 -37 62 -166 -34 -166 -53 0 -80 27 -80 79
0 55 8 71 44 87 38 16 31 16 70 0z"/>
<path d="M2287 808 c-32 -68 -57 -126 -57 -130 0 -5 8 -8 19 -8 11 0 23 12 31
30 12 28 16 30 65 30 49 0 53 -2 65 -30 8 -18 20 -30 31 -30 11 0 19 4 19 8 0
11 -100 235 -109 245 -4 4 -33 -48 -64 -115z m81 -10 c11 -27 11 -28 -23 -28
l-35 0 17 35 c18 37 22 36 41 -7z"/>
<path d="M2490 802 c0 -125 1 -132 20 -132 18 0 20 7 20 80 0 44 3 80 6 80 4
0 44 -39 90 -87 l83 -88 1 133 c0 125 -1 132 -20 132 -18 0 -20 -7 -20 -82 l0
-83 -90 90 -90 90 0 -133z"/>
<path d="M3039 918 c-14 -5 -31 -20 -37 -33 -18 -39 0 -71 53 -96 39 -19 46
-25 43 -48 -4 -35 -45 -42 -68 -11 -19 25 -52 18 -43 -8 12 -34 36 -52 69 -52
48 0 65 9 79 43 19 46 3 81 -51 106 -29 14 -44 27 -44 40 0 25 29 35 50 16 13
-12 19 -13 34 -2 16 12 16 14 -1 28 -25 22 -53 27 -84 17z"/>
<path d="M900 795 c0 -118 1 -125 20 -125 18 0 20 7 20 60 l0 60 40 0 c33 0
40 3 40 20 0 17 -7 20 -40 20 -36 0 -40 3 -40 24 0 22 5 25 42 28 31 2 44 8
46 21 3 15 -5 17 -62 17 l-66 0 0 -125z"/>
<path d="M1350 826 c0 -87 2 -97 26 -125 35 -42 98 -44 135 -5 21 23 24 36 27
125 l4 99 -26 0 -25 0 -3 -102 -3 -103 -35 -3 c-50 -5 -60 15 -60 120 0 81 -2
88 -20 88 -19 0 -20 -7 -20 -94z"/>
<path d="M1590 795 c0 -117 1 -125 19 -125 17 0 20 8 23 52 l3 53 34 -53 c25
-39 39 -52 58 -52 27 0 26 1 -18 63 l-27 38 24 24 c52 52 12 125 -71 125 l-45
0 0 -125z m93 63 c13 -20 -6 -48 -34 -48 -15 0 -19 7 -19 36 0 31 3 35 21 32
12 -2 27 -10 32 -20z"/>
<path d="M1862 798 l3 -123 29 -3 c58 -7 97 7 110 40 14 33 11 61 -9 78 -8 7
-11 26 -8 54 5 37 2 46 -18 60 -13 9 -43 16 -67 16 l-43 0 3 -122z m86 51 c2
-20 -2 -28 -17 -32 -18 -4 -21 -1 -21 30 0 27 4 34 18 31 10 -2 18 -14 20 -29z
m6 -75 c9 -3 16 -16 16 -29 0 -22 -17 -35 -46 -35 -9 0 -14 11 -14 35 0 36 10
42 44 29z"/>
<path d="M2060 796 c0 -119 1 -126 20 -126 17 0 20 7 20 52 l0 53 35 -53 c27
-40 41 -52 61 -52 l26 0 -37 50 -37 50 23 19 c28 22 32 83 7 108 -9 8 -39 18
-67 21 l-51 5 0 -127z m89 67 c12 -23 -4 -53 -29 -53 -16 0 -20 7 -20 35 0 28
4 35 20 35 10 0 23 -8 29 -17z"/>
<path d="M2760 794 l0 -126 60 4 c73 5 110 29 128 83 29 89 -33 165 -134 165
l-54 0 0 -126z m125 61 c52 -51 16 -145 -55 -145 l-30 0 0 85 0 85 30 0 c19 0
40 -9 55 -25z"/>
<path d="M989 500 c-88 -24 -123 -102 -83 -186 21 -43 59 -64 118 -64 112 0
165 141 82 219 -28 27 -81 40 -117 31z m61 -40 c5 0 18 -10 30 -22 27 -30 27
-96 0 -126 -25 -26 -85 -30 -117 -7 -27 19 -38 70 -24 108 11 29 65 60 89 52
8 -3 18 -5 22 -5z"/>
<path d="M1190 383 c0 -126 1 -133 20 -133 18 0 20 7 20 82 l0 83 90 -90 90
-90 0 133 0 132 -25 0 c-25 0 -25 -1 -25 -80 l0 -81 -85 88 -84 88 -1 -132z"/>
<path d="M1700 383 c0 -126 1 -133 20 -133 18 0 20 7 20 83 l1 82 83 -87 c46
-49 86 -88 90 -88 3 0 6 59 6 130 l0 130 -25 0 c-25 0 -25 -1 -25 -82 l-1 -83
-84 90 -84 90 -1 -132z"/>
<path d="M1460 375 l0 -125 55 0 c48 0 55 2 55 20 0 16 -7 20 -35 20 l-35 0 0
105 c0 98 -1 105 -20 105 -19 0 -20 -7 -20 -125z"/>
<path d="M1600 375 c0 -118 1 -125 20 -125 19 0 20 7 20 125 0 118 -1 125 -20
125 -19 0 -20 -7 -20 -125z"/>
<path d="M1970 375 l0 -126 67 3 c55 2 68 6 71 21 3 14 -4 17 -47 17 l-51 0 0
40 0 40 45 0 c38 0 45 3 45 20 0 17 -7 20 -45 20 -41 0 -45 2 -45 24 0 23 5
25 47 28 36 2 49 7 51 21 3 15 -5 17 -67 17 l-71 0 0 -125z"/>
</g>
</svg>
