<svg width="72" height="72" viewBox="0 0 72 72" fill="none" xmlns="http://www.w3.org/2000/svg">
<g filter="url(#filter0_d)">
<path d="M67.2112 30.1054V30.0342C67.2112 29.8919 67.1401 29.0378 66.9977 27.6856C66.9977 27.5432 66.9977 27.472 66.9265 27.3297C66.9265 27.1874 66.8554 26.9738 66.8554 26.8315C66.2148 22.6324 64.7202 18.718 62.5851 15.1594C62.3716 14.8036 62.0869 14.3766 61.8734 14.0207C60.6635 12.2414 59.3112 10.6045 57.8167 9.03873C57.1049 8.32702 56.2509 7.54414 55.468 6.9036C54.9698 6.47658 54.4004 6.12071 53.9022 5.69369L53.8311 5.62252L53.7599 5.55134C53.6887 5.48017 53.5464 5.409 53.4752 5.33783C53.1194 5.12432 52.7635 4.83964 52.3365 4.55495C52.3365 4.55495 52.3365 4.55495 52.2653 4.55495C52.0518 4.41261 51.8383 4.34144 51.6248 4.1991C51.5536 4.12793 51.4113 4.05676 51.3401 4.05676C51.2689 3.98559 51.1977 3.98558 51.1266 3.91441C51.0554 3.84324 50.9842 3.84324 50.9131 3.77207C49.632 3.06036 48.3509 2.491 46.9986 1.92163C46.6428 1.77929 46.3581 1.70811 46.2158 1.63694L46.0023 1.56577L45.7887 1.4946H45.7176C45.5752 1.42343 45.4329 1.42343 45.2905 1.35226H45.2194H45.1482L44.8635 1.28108C44.7212 1.28108 44.5788 1.20991 44.5077 1.13874L44.223 1.06757C44.1518 1.06757 44.0806 1.06757 44.0806 0.996401C44.0806 0.996401 44.0806 0.996401 44.0095 0.996401H43.9383H43.8671L43.5113 0.925226C43.4401 0.925226 43.2978 0.854061 43.2266 0.854061C43.1554 0.854061 43.0131 0.782886 42.9419 0.782886C42.8707 0.782886 42.7996 0.782882 42.7996 0.711711C42.7284 0.711711 42.586 0.640546 42.4437 0.640546L42.2302 0.569371C42.159 0.569371 42.0167 0.498206 41.9455 0.498206H41.8743C41.8032 0.498206 41.732 0.498202 41.6608 0.427031H41.5185H41.3761H41.305H41.2338C41.1626 0.427031 41.0914 0.427026 40.9491 0.355855C40.8779 0.355855 40.8068 0.355855 40.8068 0.355855C40.7356 0.355855 40.5933 0.355862 40.5221 0.284691L40.3086 0.213515C40.2374 0.213515 40.2374 0.213515 40.1662 0.213515C40.0951 0.213515 40.0239 0.213515 39.9527 0.213515C39.8815 0.213515 39.8104 0.213515 39.7392 0.213515C39.5969 0.213515 39.5257 0.213522 39.3833 0.142351L39.0275 0.0711754C38.9563 0.0711754 38.9563 0.0711754 38.8851 0.0711754C38.814 0.0711754 38.6716 0.0711754 38.6005 0.0711754C38.4581 0.0711754 38.3158 0.0711711 38.1734 0C38.0311 0 37.9599 0 37.8888 0C37.7464 0 37.6752 0 37.5329 0C37.3906 0 37.3194 0 37.177 0C37.1059 0 37.0347 0 36.9635 0H36.75C36.6788 0 36.6788 0 36.6077 0C36.5365 0 36.4653 0 36.4653 0C35.8248 0 35.1842 0 34.5437 0C34.4014 0 34.259 0 34.1167 0C33.9743 0 33.832 0 33.6897 0C33.6185 0 33.4761 0 33.405 0C33.1915 0 32.9779 4.34288e-06 32.7644 0.0711754C32.6933 0.0711754 32.6221 0.0711754 32.5509 0.0711754C32.2662 0.0711754 31.9816 0.142351 31.6969 0.142351C31.5545 0.142351 31.4122 0.142344 31.2698 0.213515H31.1987C30.9852 0.213515 30.7716 0.284691 30.6293 0.284691C30.487 0.284691 30.3446 0.355855 30.2023 0.355855C29.8464 0.427026 29.5617 0.498206 29.4194 0.498206C28.4942 0.711719 27.569 0.925228 26.6437 1.13874C26.0744 1.28108 25.6473 1.42342 25.0068 1.63694C22.5158 2.49099 20.1672 3.7009 17.9609 5.12433C17.7473 5.26667 17.5338 5.409 17.3203 5.55134L17.2491 5.62252C16.8933 5.9072 16.5374 6.19188 16.1104 6.4054L16.0392 6.47657C16.0392 6.47657 16.0392 6.47657 15.9681 6.47657C15.8969 6.54774 15.7545 6.61892 15.6834 6.69009C15.4699 6.83243 15.2564 7.04594 15.114 7.18828C15.0428 7.25945 14.9005 7.40179 14.8293 7.47296C14.6158 7.68647 14.4023 7.82882 14.1888 8.04233C14.1176 8.1135 14.1176 8.1135 14.0465 8.18467C13.0501 9.1099 12.4807 9.75044 12.4095 9.82161C12.1248 10.1775 11.769 10.4622 11.4843 10.818C11.2708 11.0315 11.0573 11.3162 10.8438 11.6009C10.8438 11.6009 10.8437 11.6721 10.7726 11.6721V11.7432C10.3456 12.3126 9.84735 12.9531 9.34916 13.6649C9.13564 14.0207 8.85096 14.3766 8.63745 14.8036C8.42393 15.1594 8.21042 15.5153 8.06808 15.8L7.4987 16.9387C7.28519 17.2946 7.14286 17.7216 6.92935 18.0063C6.57349 18.6468 6.2888 19.5009 5.93294 20.4261C5.64826 21.209 5.36358 22.063 5.15007 22.8459C4.86538 23.9135 4.58069 24.9099 4.50952 25.6928C4.0825 28.6108 4.01133 28.8955 4.01133 30.8171C3.94016 33.3081 4.22484 35.0162 4.29601 35.8702C4.65186 38.29 5.22124 40.1405 5.43475 40.781C6.07529 42.9162 6.71583 44.1972 7.2852 45.4071C7.64106 46.19 7.92574 46.6882 8.28159 47.3288C8.70862 48.0405 9.20681 48.8234 9.70501 49.5351C9.77618 49.6062 9.84735 49.6774 9.84735 49.8197C10.3455 50.6026 11.1284 51.5279 11.6978 52.1684C12.1248 52.6666 12.7654 53.3071 13.1924 53.8053C13.6906 54.3035 14.3311 54.8729 14.8293 55.2999C15.3987 55.7981 15.6122 56.0116 16.1816 56.3675C16.8221 56.8657 17.4627 57.3639 18.1744 57.7909C18.3879 57.9333 18.6014 58.0756 18.8149 58.2179C19.0996 58.3603 19.3131 58.5026 19.5266 58.645C19.669 58.7161 19.8113 58.7873 20.0248 58.9296C20.0248 58.9296 20.096 58.9296 20.096 59.0008C20.3095 59.1432 20.523 59.2143 20.8077 59.3567C20.8789 59.3567 20.95 59.4278 20.95 59.4278C21.7329 59.8549 22.6581 60.2819 23.7969 60.7801C24.0104 60.8513 24.3663 60.9936 24.7221 61.1359C24.8645 61.2071 24.9356 61.2071 25.078 61.2783L25.6473 61.4918C25.7897 61.563 25.932 61.563 26.0744 61.6341L26.2167 61.7053L26.4302 61.7765C26.5726 61.7765 26.7149 61.8477 26.7861 61.9188L27.1419 61.99C28.4942 62.417 29.8464 62.6305 31.0563 62.8441H31.1987C31.2698 62.8441 31.4122 62.8441 31.5545 62.9152C31.6969 62.9152 31.768 62.9152 31.8392 62.9864L32.5509 63.0576C32.8356 63.0576 33.2626 63.1287 33.6185 63.1287C33.9032 63.1287 34.259 63.1999 34.6149 63.1999C34.7572 63.1999 34.9707 63.1999 35.1131 63.1999C35.5401 63.1999 36.1095 63.1999 36.6077 63.1999C37.0347 63.1999 37.6752 63.1287 38.1023 63.1287C39.0275 63.0576 40.3086 62.9152 41.305 62.7729C42.0167 62.6305 43.0131 62.4882 43.7248 62.2747C43.9383 62.2035 44.0806 62.1323 44.2942 62.1323C44.8635 61.99 45.4329 61.7765 45.9311 61.6341L46.5005 61.4206C46.9275 61.2783 47.4257 61.0648 47.8527 60.9224L48.0662 60.8513C48.6356 60.6377 49.2761 60.3531 49.8455 60.0684C50.059 59.926 50.3437 59.8549 50.5572 59.7125C51.1977 59.3567 52.0518 58.9296 52.6212 58.5026C52.6212 58.5026 52.6923 58.5026 52.6923 58.4314C53.2617 58.0756 53.7599 57.7197 54.3293 57.3639C54.4716 57.2927 54.5428 57.2215 54.6851 57.1504L55.2545 56.7233C55.3968 56.581 55.5392 56.5098 55.6815 56.3675L56.5356 55.6558C56.8914 55.3711 57.4608 54.8729 58.386 53.9477C58.386 53.9477 58.386 53.9477 58.4572 53.8765L58.5284 53.8053C58.9554 53.3071 59.5248 52.8089 60.0941 52.0972C60.0941 52.0972 60.0941 52.0972 60.1653 52.0261C60.7347 51.3855 61.7311 50.1044 62.8698 48.3963C62.8698 48.3963 62.8698 48.3963 62.8698 48.3252C63.0833 47.8981 63.368 47.5423 63.6527 47.0441C63.795 46.8306 63.8662 46.6882 64.0085 46.4747C64.1509 46.19 64.2932 45.9053 64.4356 45.6918C64.5067 45.6207 64.5067 45.5495 64.5779 45.4783C64.7914 45.0513 65.0049 44.6243 65.2184 44.1261C65.5031 43.4855 65.7878 42.845 65.9302 42.3468C66.286 41.4216 66.5707 40.4252 66.8554 39.3576C66.9977 38.7171 67.2112 38.0765 67.2824 37.5072C67.4247 36.8666 67.4959 36.2261 67.6383 35.5144C67.6383 35.372 67.7094 35.2297 67.7094 35.0873C67.8518 34.1621 67.8518 33.2369 67.9229 32.2405V32.1693V32.0982C67.2824 31.6711 67.2112 30.8882 67.2112 30.1054Z" fill="url(#paint0_radial)"/>
<path d="M57.8167 23.9848C57.8167 24.5542 57.6032 25.8353 56.2509 25.8353C56.1797 25.8353 56.0374 25.8353 55.9662 25.7641C58.3149 26.4758 58.1014 30.2479 56.6068 30.9596C56.3933 31.0308 56.1086 31.1019 55.8951 31.1019C55.7527 31.1019 55.6815 31.1019 55.5392 31.0308C57.8167 31.6713 57.1761 35.301 55.6104 35.9416C55.3969 36.0127 55.1122 36.0127 54.8987 36.0127C54.6852 36.0127 54.4716 35.9416 54.3293 35.9416C56.2509 36.5109 55.5392 39.3578 54.3293 40.1407C53.9734 40.3542 53.6176 40.4253 53.4041 40.4253C49.4185 39.9271 44.5789 39.5001 39.3122 39.2154C38.7428 39.1443 38.4581 38.7884 38.4581 38.1479C38.6717 34.8028 38.814 31.2443 38.9564 27.6857C39.0275 25.8353 39.0275 23.9848 39.0987 22.2056C39.0987 21.8497 39.0987 21.8497 40.7356 19.7146C43.2266 16.5119 44.4365 14.6614 45.3617 13.1668C45.2194 12.3839 45.0771 11.6011 44.9347 10.8182C44.8635 10.0353 45.1482 9.67944 45.7888 9.67944C47.3545 9.96413 48.3509 10.8894 48.9915 12.5263C49.0626 12.8821 49.205 13.238 49.2762 13.5227C49.7744 16.0137 49.632 17.5794 48.7068 19.7857C51.2689 19.9992 53.6888 20.2839 55.8239 20.6398C57.8167 21.2092 57.8167 23.9848 57.8167 23.9848ZM36.75 40.2118C36.9636 36.2262 37.1771 31.956 37.2482 27.5434C37.3194 25.6929 37.3194 23.8425 37.3906 22.0632C37.3194 21.2092 36.8924 20.7821 36.1095 20.711C34.1879 20.6398 32.3374 20.6398 30.487 20.5686C29.7041 20.6398 29.2771 21.0668 29.1347 21.9209C28.9924 23.7001 28.9212 25.4794 28.8501 27.401C28.7077 31.7425 28.7789 36.0839 28.9924 40.0695C29.1347 40.8524 29.4906 41.2794 30.2023 41.4217C31.9104 41.4217 33.6185 41.4929 35.3978 41.4929C36.2519 41.4217 36.6789 40.9947 36.75 40.2118Z" fill="#ECF5F9"/>
</g>
<defs>
<filter id="filter0_d" x="0" y="0" width="71.9229" height="71.1999" filterUnits="userSpaceOnUse" color-interpolation-filters="sRGB">
<feFlood flood-opacity="0" result="BackgroundImageFix"/>
<feColorMatrix in="SourceAlpha" type="matrix" values="0 0 0 0 0 0 0 0 0 0 0 0 0 0 0 0 0 0 127 0" result="hardAlpha"/>
<feOffset dy="4"/>
<feGaussianBlur stdDeviation="2"/>
<feColorMatrix type="matrix" values="0 0 0 0 0 0 0 0 0 0 0 0 0 0 0 0 0 0 0.2 0"/>
<feBlend mode="normal" in2="BackgroundImageFix" result="effect1_dropShadow"/>
<feBlend mode="normal" in="SourceGraphic" in2="effect1_dropShadow" result="shape"/>
</filter>
<radialGradient id="paint0_radial" cx="0" cy="0" r="1" gradientUnits="userSpaceOnUse" gradientTransform="translate(37.5358 28.816) scale(35.1097)">
<stop stop-color="#447BC1"/>
<stop offset="0.4717" stop-color="#3663A8"/>
<stop offset="0.7649" stop-color="#30599E"/>
<stop offset="0.828" stop-color="#335DA1"/>
<stop offset="0.8843" stop-color="#3E67A9"/>
<stop offset="0.938" stop-color="#507AB7"/>
<stop offset="0.9897" stop-color="#6893CA"/>
<stop offset="1" stop-color="#6E99CF"/>
</radialGradient>
</defs>
</svg>
