<svg width="78" height="116" viewBox="0 0 78 116" fill="none" xmlns="http://www.w3.org/2000/svg">
<path d="M4.51447 56.3715L61.6978 89.9439L73.7363 116L78 114.246V43.0929L4.51447 0L0 2.00432L4.51447 56.3715Z" fill="#FFCC00"/>
<path d="M72.7331 45.5983L2.25724 4.25922L1.25402 1.0022L74.7395 44.3456V115.499L72.7331 109.737V45.5983Z" fill="white"/>
<path d="M0 57.8746L56.9325 91.6975L73.4855 116V44.8465L0 1.75366V57.8746Z" fill="#FFDE17"/>
<path d="M18.3087 29.5636L13.5434 26.8077V21.7969L27.5884 30.0647V34.825L22.8231 32.069V60.8811L18.3087 58.1252V29.5636Z" fill="#001A46"/>
<path d="M31.0997 64.1381C29.8456 61.8833 29.344 59.6284 29.344 56.8725V39.0842C29.344 36.3282 29.8456 34.5744 31.0997 33.8228C32.3537 33.0712 34.1093 33.3217 36.3665 34.5744C38.6238 35.8271 40.3794 37.5809 41.6334 39.8358C42.8874 42.0906 43.3891 44.3455 43.3891 47.1014V64.8898C43.3891 67.6457 42.8874 69.3995 41.6334 70.1511C40.3794 70.9027 38.6238 70.6522 36.3665 69.3995C34.1093 67.8962 32.3537 66.1425 31.0997 64.1381ZM38.6238 62.3844V44.0949C38.6238 41.8401 37.8714 40.3368 36.1157 39.3347C34.6109 38.3325 33.6077 39.0842 33.6077 41.339V59.6284C33.6077 61.8833 34.3601 63.3865 36.1157 64.3887C37.8714 65.3908 38.6238 64.6392 38.6238 62.3844Z" fill="#001A46"/>
<path d="M46.3987 40.8379L53.1704 44.8465C55.4277 46.0992 57.1833 47.853 58.4373 49.8573C59.6913 51.8616 60.1929 54.367 60.1929 57.123V60.38C60.1929 63.1359 59.6913 64.8897 58.4373 65.6413C57.1833 66.393 55.6785 66.1424 53.1704 64.8897L50.9132 63.637V77.4167L46.3987 74.6608V40.8379ZM53.1704 60.1295C53.9228 60.6305 54.4244 60.6305 54.926 60.38C55.4277 60.1295 55.4277 59.3778 55.4277 58.3757V54.367C55.4277 53.1143 55.1768 52.3627 54.926 51.6111C54.4244 50.8595 53.9228 50.3584 53.1704 49.8573L50.9132 48.6046V58.8768L53.1704 60.1295Z" fill="#001A46"/>
</svg>
