<svg width="75" height="75" viewBox="0 0 75 75" fill="none" xmlns="http://www.w3.org/2000/svg">
<g filter="url(#filter0_d)">
<path d="M70.254 31.5545V31.4799C70.254 31.3307 70.1794 30.4356 70.0302 29.0182C70.0302 28.869 70.0302 28.7944 69.9556 28.6453C69.9556 28.4961 69.881 28.2723 69.881 28.1231C69.2097 23.7218 67.6431 19.619 65.4052 15.8892C65.1814 15.5162 64.883 15.0686 64.6593 14.6956C63.3911 12.8307 61.9738 11.115 60.4072 9.47382C59.6613 8.72785 58.7661 7.90728 57.9455 7.23591C57.4233 6.78833 56.8266 6.41534 56.3044 5.96776L56.2298 5.89316L56.1552 5.81857C56.0806 5.74397 55.9314 5.66937 55.8568 5.59478C55.4838 5.37099 55.1108 5.07259 54.6633 4.7742C54.6633 4.7742 54.6632 4.7742 54.5887 4.7742C54.3649 4.62501 54.1411 4.55041 53.9173 4.40122C53.8427 4.32662 53.6935 4.25203 53.6189 4.25203C53.5443 4.17743 53.4697 4.17743 53.3951 4.10284C53.3205 4.02824 53.2459 4.02824 53.1713 3.95364C51.8286 3.20767 50.4858 2.61089 49.0685 2.01412C48.6955 1.86492 48.3971 1.79033 48.2479 1.71573L48.0241 1.64113L47.8003 1.56654H47.7257C47.5765 1.49194 47.4273 1.49194 47.2781 1.41734H47.2036H47.129L46.8306 1.34275C46.6814 1.34275 46.5322 1.26815 46.4576 1.19356L46.1592 1.11896C46.0846 1.11896 46.01 1.11895 46.01 1.04435C46.01 1.04435 46.01 1.04435 45.9354 1.04435H45.8608H45.7862L45.4132 0.969764C45.3386 0.969764 45.1894 0.895162 45.1148 0.895162C45.0402 0.895162 44.891 0.820572 44.8165 0.820572C44.7419 0.820572 44.6672 0.820567 44.6672 0.74597C44.5927 0.74597 44.4435 0.671369 44.2943 0.671369L44.0705 0.596778C43.9959 0.596778 43.8467 0.522177 43.7721 0.522177H43.6975C43.6229 0.522177 43.5483 0.522184 43.4737 0.447587H43.3245H43.1753H43.1007H43.0261C42.9515 0.447587 42.8769 0.447582 42.7277 0.372985C42.6531 0.372985 42.5785 0.372985 42.5785 0.372985C42.5039 0.372985 42.3547 0.372981 42.2801 0.298384L42.0564 0.223793C41.9818 0.223793 41.9818 0.223793 41.9072 0.223793C41.8326 0.223793 41.758 0.223793 41.6834 0.223793C41.6088 0.223793 41.5342 0.223793 41.4596 0.223793C41.3104 0.223793 41.2358 0.223789 41.0866 0.149192L40.7136 0.0746016C40.639 0.0746016 40.639 0.0746016 40.5644 0.0746016C40.4898 0.0746016 40.3406 0.0746016 40.266 0.0746016C40.1168 0.0746016 39.9676 0.074597 39.8184 0C39.6692 0 39.5947 0 39.5201 0C39.3709 0 39.2963 0 39.1471 0C38.9979 0 38.9233 0 38.7741 0C38.6995 0 38.6249 0 38.5503 0H38.3265C38.2519 0 38.2519 0 38.1773 0C38.1027 0 38.0281 0 38.0281 0C37.3567 0 36.6854 0 36.014 0C35.8648 0 35.7156 0 35.5664 0C35.4172 0 35.268 0 35.1188 0C35.0442 0 34.895 0 34.8204 0C34.5967 0 34.3729 4.55193e-06 34.1491 0.0746016C34.0745 0.0746016 33.9999 0.0746016 33.9253 0.0746016C33.6269 0.0746016 33.3285 0.149192 33.0301 0.149192C32.8809 0.149192 32.7317 0.149196 32.5825 0.223793H32.5079C32.2842 0.223793 32.0604 0.298384 31.9112 0.298384C31.762 0.298384 31.6128 0.372985 31.4636 0.372985C31.0906 0.447582 30.7922 0.522177 30.643 0.522177C29.6733 0.745968 28.7035 0.969766 27.7337 1.19356C27.1369 1.34275 26.6894 1.49194 26.018 1.71573C23.4071 2.6109 20.9454 3.87904 18.6329 5.37098C18.4091 5.52018 18.1853 5.66938 17.9615 5.81857L17.8869 5.89316C17.5139 6.19155 17.1409 6.48994 16.6934 6.71373L16.6188 6.78833C16.6188 6.78833 16.6188 6.78833 16.5442 6.78833C16.4696 6.86293 16.3204 6.93752 16.2458 7.01212C16.022 7.16131 15.7982 7.38511 15.649 7.5343C15.5744 7.6089 15.4252 7.75809 15.3506 7.83269C15.1268 8.05648 14.903 8.20567 14.6792 8.42947C14.6047 8.50406 14.6047 8.50406 14.5301 8.57866C13.4857 9.54842 12.8889 10.2198 12.8143 10.2944C12.5159 10.6674 12.1429 10.9658 11.8446 11.3387C11.6208 11.5625 11.397 11.8609 11.1732 12.1593C11.1732 12.1593 11.1732 12.2339 11.0986 12.2339V12.3085C10.651 12.9053 10.1288 13.5767 9.60665 14.3226C9.38286 14.6956 9.08447 15.0686 8.86068 15.5162C8.63689 15.8892 8.41311 16.2621 8.26391 16.5605L7.66713 17.7541C7.44334 18.1271 7.29415 18.5747 7.07035 18.873C6.69737 19.5444 6.39899 20.4396 6.026 21.4093C5.72761 22.2299 5.42922 23.1251 5.20543 23.9456C4.90704 25.0646 4.60866 26.109 4.53406 26.9295C4.08648 29.988 4.01187 30.2864 4.01187 32.3005C3.93727 34.9114 4.23567 36.7017 4.31027 37.5969C4.68325 40.1332 5.28002 42.0727 5.50381 42.7441C6.17519 44.982 6.84656 46.3248 7.44334 47.5929C7.81632 48.4135 8.11471 48.9356 8.48769 49.607C8.93528 50.353 9.45745 51.1736 9.97963 51.9195C10.0542 51.9941 10.1288 52.0687 10.1288 52.2179C10.651 53.0385 11.4716 54.0082 12.0684 54.6796C12.5159 55.2018 13.1873 55.8732 13.6349 56.3954C14.1571 56.9175 14.8284 57.5143 15.3506 57.9619C15.9474 58.4841 16.1712 58.7079 16.768 59.0808C17.4393 59.603 18.1107 60.1252 18.8567 60.5728C19.0805 60.722 19.3043 60.8712 19.5281 61.0204C19.8264 61.1696 20.0502 61.3187 20.274 61.4679C20.4232 61.5425 20.5724 61.6171 20.7962 61.7663C20.7962 61.7663 20.8708 61.7663 20.8708 61.8409C21.0946 61.9901 21.3184 62.0647 21.6168 62.2139C21.6914 62.2139 21.766 62.2885 21.766 62.2885C22.5865 62.7361 23.5563 63.1837 24.7498 63.7058C24.9736 63.7804 25.3466 63.9296 25.7196 64.0788C25.8688 64.1534 25.9434 64.1534 26.0926 64.228L26.6894 64.4518C26.8386 64.5264 26.9878 64.5264 27.1369 64.601L27.2862 64.6756L27.5099 64.7502C27.6591 64.7502 27.8083 64.8248 27.8829 64.8994L28.2559 64.974C29.6732 65.4216 31.0906 65.6454 32.3587 65.8692H32.5079C32.5825 65.8692 32.7317 65.8692 32.8809 65.9438C33.0301 65.9438 33.1047 65.9438 33.1793 66.0184L33.9253 66.093C34.2237 66.093 34.6713 66.1676 35.0442 66.1676C35.3426 66.1676 35.7156 66.2422 36.0886 66.2422C36.2378 66.2422 36.4616 66.2422 36.6108 66.2422C37.0584 66.2422 37.6551 66.2422 38.1773 66.2422C38.6249 66.2422 39.2963 66.1676 39.7439 66.1676C40.7136 66.093 42.0564 65.9438 43.1007 65.7946C43.8467 65.6454 44.891 65.4962 45.637 65.2724C45.8608 65.1978 46.01 65.1978 46.2338 65.1232C46.8306 64.974 47.4273 64.7502 47.9495 64.601L48.5463 64.3772C48.9939 64.228 49.5161 64.0042 49.9636 63.8551L50.1874 63.7805C50.7842 63.5567 51.4556 63.2583 52.0524 62.9599C52.2761 62.8107 52.5745 62.7361 52.7983 62.5869C53.4697 62.2139 54.3649 61.7663 54.9616 61.3187C54.9616 61.3187 55.0362 61.3188 55.0362 61.2442C55.633 60.8712 56.1552 60.4982 56.752 60.1252C56.9012 60.0506 56.9758 59.976 57.125 59.9014L57.7217 59.4538C57.8709 59.3046 58.0201 59.23 58.1693 59.0808L59.0645 58.3349C59.4375 58.0365 60.0342 57.5143 61.004 56.5445C61.004 56.5445 61.004 56.5445 61.0786 56.4699L61.1532 56.3954C61.6008 55.8732 62.1975 55.351 62.7943 54.605C62.7943 54.605 62.7943 54.605 62.8689 54.5304C63.4657 53.8591 64.5101 52.5163 65.7036 50.726C65.7036 50.726 65.7036 50.726 65.7036 50.6514C65.9274 50.2038 66.2258 49.8308 66.5242 49.3086C66.6734 49.0848 66.748 48.9356 66.8972 48.7119C67.0464 48.4135 67.1956 48.1151 67.3447 47.8913C67.4193 47.8167 67.4193 47.7421 67.4939 47.6675C67.7177 47.2199 67.9415 46.7723 68.1653 46.2502C68.4637 45.5788 68.7621 44.9074 68.9113 44.3852C69.2843 43.4155 69.5827 42.3711 69.881 41.2522C70.0302 40.5808 70.254 39.9094 70.3286 39.3126C70.4778 38.6413 70.5524 37.9699 70.7016 37.2239C70.7016 37.0747 70.7762 36.9255 70.7762 36.7763C70.9254 35.8066 70.9254 34.8368 71 33.7925V33.7178V33.6433C70.3286 33.2703 70.3286 32.4497 70.254 31.5545Z" fill="url(#paint0_radial)"/>
<path d="M30.5684 5.89303C31.6874 6.11682 32.2841 6.93739 32.0604 7.98174C31.5382 10.9656 26.1672 13.2781 24.5261 11.1894C23.1087 9.1753 26.8386 5.22165 30.5684 5.89303ZM53.8427 16.1874C50.7842 14.3225 48.0987 17.1572 48.9193 20.2903C49.8145 23.6471 53.7681 24.6169 55.3346 21.8568C56.3044 20.0665 55.7076 17.4556 53.8427 16.1874ZM36.6108 19.0221C29.4495 16.3366 23.7055 24.2439 26.391 30.3609C29.2257 36.8508 37.9535 34.3145 40.1168 27.9737C41.385 24.2439 39.8931 20.4394 36.6108 19.0221ZM37.8043 1.4172C35.4172 0.895026 31.3144 1.5664 31.8366 2.23778C31.9112 2.31237 32.135 2.38697 32.135 2.38697C32.2842 2.38697 32.6571 2.46157 33.2539 2.31238C34.4475 2.08859 35.4918 2.01398 36.1632 2.16317C36.9092 2.31237 37.2076 2.75996 37.3568 2.98375C37.4313 3.05834 37.5805 3.43133 38.3265 3.50592C39.0725 3.58052 39.8184 3.35673 39.893 2.98375C39.893 2.98375 39.7438 1.93938 37.8043 1.4172ZM55.4838 9.32449C53.9173 8.35473 51.2318 7.75795 51.381 8.87691C51.381 9.0261 51.5302 9.32449 51.9778 9.69748C51.9778 9.69748 51.9778 9.69748 52.0524 9.69748C52.3507 9.92127 52.7237 10.0705 53.0221 10.0705C53.3205 10.0705 54.2903 10.0705 55.1854 10.6672C55.8568 11.1148 56.4536 11.8608 56.9012 12.8306C57.125 13.3527 57.4979 13.5765 57.5725 13.6511C58.0201 13.9495 58.3931 13.9495 58.5423 13.7257C58.9899 13.0543 57.1996 10.3689 55.4838 9.32449Z" fill="#463313"/>
</g>
<defs>
<filter id="filter0_d" x="0" y="0" width="75" height="74.2422" filterUnits="userSpaceOnUse" color-interpolation-filters="sRGB">
<feFlood flood-opacity="0" result="BackgroundImageFix"/>
<feColorMatrix in="SourceAlpha" type="matrix" values="0 0 0 0 0 0 0 0 0 0 0 0 0 0 0 0 0 0 127 0" result="hardAlpha"/>
<feOffset dy="4"/>
<feGaussianBlur stdDeviation="2"/>
<feColorMatrix type="matrix" values="0 0 0 0 0 0 0 0 0 0 0 0 0 0 0 0 0 0 0.25 0"/>
<feBlend mode="normal" in2="BackgroundImageFix" result="effect1_dropShadow"/>
<feBlend mode="normal" in="SourceGraphic" in2="effect1_dropShadow" result="shape"/>
</filter>
<radialGradient id="paint0_radial" cx="0" cy="0" r="1" gradientUnits="userSpaceOnUse" gradientTransform="translate(39.1554 30.2337) scale(36.7998)">
<stop stop-color="#F5E100"/>
<stop offset="0.2948" stop-color="#F5DD00"/>
<stop offset="0.5762" stop-color="#F6D201"/>
<stop offset="0.7298" stop-color="#F6C802"/>
<stop offset="0.7793" stop-color="#F6CB0A"/>
<stop offset="0.8578" stop-color="#F8D221"/>
<stop offset="0.955" stop-color="#FADD46"/>
<stop offset="1" stop-color="#FBE35A"/>
</radialGradient>
</defs>
</svg>
