<svg width="79" height="97" viewBox="0 0 79 97" fill="none" xmlns="http://www.w3.org/2000/svg">
<g filter="url(#filter0_d)">
<path d="M92.8159 42.3V42.2C92.8159 42 92.7159 40.8 92.5159 38.9C92.5159 38.7 92.5159 38.6 92.4159 38.4C92.4159 38.2 92.3159 37.9 92.3159 37.7C91.4159 31.8 89.3159 26.3 86.3159 21.3C86.0159 20.8 85.6159 20.2 85.3159 19.7C83.6159 17.2 81.7159 14.9 79.6159 12.7C78.6159 11.7 77.4159 10.6 76.3159 9.7C75.6159 9.1 74.8159 8.6 74.1159 8L74.0159 7.90001L73.9159 7.8C73.8159 7.7 73.6159 7.6 73.5159 7.5C73.0159 7.2 72.5159 6.80001 71.9159 6.40001C71.9159 6.40001 71.9159 6.40001 71.8159 6.40001C71.5159 6.20001 71.2159 6.10001 70.9159 5.90001C70.8159 5.80001 70.6159 5.7 70.5159 5.7C70.4159 5.6 70.3159 5.6 70.2159 5.5C70.1159 5.4 70.0159 5.4 69.9159 5.3C68.1159 4.3 66.3159 3.5 64.4159 2.7C63.9159 2.5 63.5159 2.4 63.3159 2.3L63.0159 2.2L62.7159 2.10001H62.6159C62.4159 2.00001 62.2159 2.00001 62.0159 1.90001H61.9159H61.8159L61.4159 1.8C61.2159 1.8 61.0159 1.70001 60.9159 1.60001L60.5159 1.5C60.4159 1.5 60.3159 1.50001 60.3159 1.40001C60.3159 1.40001 60.3159 1.40001 60.2159 1.40001H60.1159H60.0159L59.5159 1.3C59.4159 1.3 59.2159 1.2 59.1159 1.2C59.0159 1.2 58.8159 1.10001 58.7159 1.10001C58.6159 1.10001 58.5159 1.1 58.5159 1C58.4159 1 58.2159 0.900009 58.0159 0.900009L57.7159 0.800003C57.6159 0.800003 57.4159 0.699997 57.3159 0.699997H57.2159C57.1159 0.699997 57.0159 0.700006 56.9159 0.600006H56.7159H56.5159H56.4159H56.3159C56.2159 0.600006 56.1159 0.6 55.9159 0.5C55.8159 0.5 55.7159 0.5 55.7159 0.5C55.6159 0.5 55.4159 0.500009 55.3159 0.400009L55.0159 0.300003C54.9159 0.300003 54.9159 0.300003 54.8159 0.300003C54.7159 0.300003 54.6159 0.300003 54.5159 0.300003C54.4159 0.300003 54.3159 0.300003 54.2159 0.300003C54.0159 0.300003 53.9159 0.299997 53.7159 0.199997L53.2159 0.100006C53.1159 0.100006 53.1159 0.100006 53.0159 0.100006C52.9159 0.100006 52.7159 0.100006 52.6159 0.100006C52.4159 0.100006 52.2159 0.1 52.0159 0C51.8159 0 51.7159 0 51.6159 0C51.4159 0 51.3159 0 51.1159 0C50.9159 0 50.8159 0 50.6159 0C50.5159 0 50.4159 0 50.3159 0H50.0159C49.9159 0 49.9159 0 49.8159 0C49.7159 0 49.6159 0 49.6159 0C48.7159 0 47.8159 0 46.9159 0C46.7159 0 46.5159 0 46.3159 0C46.1159 0 45.9159 0 45.7159 0C45.6159 0 45.4159 0 45.3159 0C45.0159 0 44.7159 6.10203e-06 44.4159 0.100006C44.3159 0.100006 44.2159 0.100006 44.1159 0.100006C43.7159 0.100006 43.3159 0.199997 42.9159 0.199997C42.7159 0.199997 42.5159 0.200003 42.3159 0.300003H42.2159C41.9159 0.300003 41.6159 0.400009 41.4159 0.400009C41.2159 0.400009 41.0159 0.5 40.8159 0.5C40.3159 0.6 39.9159 0.699997 39.7159 0.699997C38.4159 0.999997 37.1159 1.30001 35.8159 1.60001C35.0159 1.80001 34.4159 2 33.5159 2.3C30.0159 3.5 26.7159 5.2 23.6159 7.2C23.3159 7.4 23.0159 7.6 22.7159 7.8L22.6159 7.90001C22.1159 8.30001 21.6159 8.7 21.0159 9L20.9159 9.10001C20.9159 9.10001 20.9159 9.10001 20.8159 9.10001C20.7159 9.20001 20.5159 9.30001 20.4159 9.40001C20.1159 9.60001 19.8159 9.90001 19.6159 10.1C19.5159 10.2 19.3159 10.4 19.2159 10.5C18.9159 10.8 18.6159 11 18.3159 11.3C18.2159 11.4 18.2159 11.4 18.1159 11.5C16.7159 12.8 15.9159 13.7 15.8159 13.8C15.4159 14.3 14.9159 14.7 14.5159 15.2C14.2159 15.5 13.9159 15.9 13.6159 16.3C13.6159 16.3 13.6159 16.4 13.5159 16.4V16.5C12.9159 17.3 12.2159 18.2 11.5159 19.2C11.2159 19.7 10.8159 20.2 10.5159 20.8C10.2159 21.3 9.91591 21.8 9.71591 22.2L8.91591 23.8C8.61591 24.3 8.41591 24.9 8.11591 25.3C7.61591 26.2 7.21591 27.4 6.71591 28.7C6.31591 29.8 5.91591 31 5.61591 32.1C5.21591 33.6 4.81591 35 4.71591 36.1C4.11591 40.2 4.01592 40.6 4.01592 43.3C3.91592 46.8 4.31591 49.2 4.41591 50.4C4.91591 53.8 5.71592 56.4 6.01592 57.3C6.91592 60.3 7.81591 62.1 8.61591 63.8C9.11591 64.9 9.51592 65.6 10.0159 66.5C10.6159 67.5 11.3159 68.6 12.0159 69.6C12.1159 69.7 12.2159 69.8 12.2159 70C12.9159 71.1 14.0159 72.4 14.8159 73.3C15.4159 74 16.3159 74.9 16.9159 75.6C17.6159 76.3 18.5159 77.1 19.2159 77.7C20.0159 78.4 20.3159 78.7 21.1159 79.2C22.0159 79.9 22.9159 80.6 23.9159 81.2C24.2159 81.4 24.5159 81.6 24.8159 81.8C25.2159 82 25.5159 82.2 25.8159 82.4C26.0159 82.5 26.2159 82.6 26.5159 82.8C26.5159 82.8 26.6159 82.8 26.6159 82.9C26.9159 83.1 27.2159 83.2 27.6159 83.4C27.7159 83.4 27.8159 83.5 27.8159 83.5C28.9159 84.1 30.2159 84.7 31.8159 85.4C32.1159 85.5 32.6159 85.7 33.1159 85.9C33.3159 86 33.4159 86 33.6159 86.1L34.4159 86.4C34.6159 86.5 34.8159 86.5 35.0159 86.6L35.2159 86.7L35.5159 86.8C35.7159 86.8 35.9159 86.9 36.0159 87L36.5159 87.1C38.4159 87.7 40.3159 88 42.0159 88.3H42.2159C42.3159 88.3 42.5159 88.3 42.7159 88.4C42.9159 88.4 43.0159 88.4 43.1159 88.5L44.1159 88.6C44.5159 88.6 45.1159 88.7 45.6159 88.7C46.0159 88.7 46.5159 88.8 47.0159 88.8C47.2159 88.8 47.5159 88.8 47.7159 88.8C48.3159 88.8 49.1159 88.8 49.8159 88.8C50.4159 88.8 51.3159 88.7 51.9159 88.7C53.2159 88.6 55.0159 88.4 56.4159 88.2C57.4159 88 58.8159 87.8 59.8159 87.5C60.1159 87.4 60.3159 87.3 60.6159 87.3C61.4159 87.1 62.2159 86.8 62.9159 86.6L63.7159 86.3C64.3159 86.1 65.0159 85.8 65.6159 85.6L65.9159 85.5C66.7159 85.2 67.6159 84.8 68.4159 84.4C68.7159 84.2 69.1159 84.1 69.4159 83.9C70.3159 83.4 71.5159 82.8 72.3159 82.2C72.3159 82.2 72.4159 82.2 72.4159 82.1C73.2159 81.6 73.9159 81.1 74.7159 80.6C74.9159 80.5 75.0159 80.4 75.2159 80.3L76.0159 79.7C76.2159 79.5 76.4159 79.4 76.6159 79.2L77.8159 78.2C78.3159 77.8 79.1159 77.1 80.4159 75.8C80.4159 75.8 80.4159 75.8 80.5159 75.7L80.6159 75.6C81.2159 74.9 82.0159 74.2 82.8159 73.2C82.8159 73.2 82.8159 73.2 82.9159 73.1C83.7159 72.2 85.1159 70.4 86.7159 68C86.7159 68 86.7159 68 86.7159 67.9C87.0159 67.3 87.4159 66.8 87.8159 66.1C88.0159 65.8 88.1159 65.6 88.3159 65.3C88.5159 64.9 88.7159 64.5 88.9159 64.2C89.0159 64.1 89.0159 64 89.1159 63.9C89.4159 63.3 89.7159 62.7 90.0159 62C90.4159 61.1 90.8159 60.2 91.0159 59.5C91.5159 58.2 91.9159 56.8 92.3159 55.3C92.5159 54.4 92.8159 53.5 92.9159 52.7C93.1159 51.8 93.2159 50.9 93.4159 49.9C93.4159 49.7 93.5159 49.5 93.5159 49.3C93.7159 48 93.7159 46.7 93.8159 45.3V45.2V45.1C92.9159 44.6 92.9159 43.4 92.8159 42.3Z" fill="url(#paint0_radial)"/>
<path d="M62.7159 28.4C70.2159 41.3 62.0159 53.2 57.7159 59.6C56.3159 59.8 54.5159 60.1 53.2159 60.4C29.2159 63.6 20.1159 45.5 27.9159 36.9C28.5159 36.2 34.4159 30.1 42.7159 36.1C41.6159 30.8 43.0159 27.3 47.2159 24.2C52.3159 20.9 59.5159 22.9 62.7159 28.4Z" fill="white"/>
</g>
<defs>
<filter id="filter0_d" x="0" y="0" width="97.8159" height="96.8" filterUnits="userSpaceOnUse" color-interpolation-filters="sRGB">
<feFlood flood-opacity="0" result="BackgroundImageFix"/>
<feColorMatrix in="SourceAlpha" type="matrix" values="0 0 0 0 0 0 0 0 0 0 0 0 0 0 0 0 0 0 127 0" result="hardAlpha"/>
<feOffset dy="4"/>
<feGaussianBlur stdDeviation="2"/>
<feColorMatrix type="matrix" values="0 0 0 0 0 0 0 0 0 0 0 0 0 0 0 0 0 0 0.2 0"/>
<feBlend mode="normal" in2="BackgroundImageFix" result="effect1_dropShadow"/>
<feBlend mode="normal" in="SourceGraphic" in2="effect1_dropShadow" result="shape"/>
</filter>
<radialGradient id="paint0_radial" cx="0" cy="0" r="1" gradientUnits="userSpaceOnUse" gradientTransform="translate(51.1422 40.5167) scale(49.3315)">
<stop stop-color="#FF414D"/>
<stop offset="0.2352" stop-color="#F93D4A"/>
<stop offset="0.5345" stop-color="#EA3042"/>
<stop offset="0.7353" stop-color="#DB243A"/>
<stop offset="0.7741" stop-color="#DD2C3D"/>
<stop offset="0.8356" stop-color="#E44347"/>
<stop offset="0.9122" stop-color="#EE6956"/>
<stop offset="1" stop-color="#FD9C6B"/>
</radialGradient>
</defs>
</svg>
