<svg width="49" height="46" viewBox="0 0 49 46" fill="none" xmlns="http://www.w3.org/2000/svg">
<g filter="url(#filter0_d)">
<path d="M24.4422 18.8646L4.27014 21.1293L16.3855 37.4719L36.5575 35.2072L44.7129 16.4986L32.5975 0.156077L24.4422 18.8646Z" fill="#42E8E0"/>
<path d="M36.5575 35.2072L16.3855 37.4719L4.27014 21.1293L24.4422 18.8646L36.5575 35.2072Z" fill="#42E8E0"/>
<path d="M44.7129 16.4987L36.5575 35.2072L24.4422 18.8647L32.5975 0.156149L44.7129 16.4987Z" fill="#2FD3C7"/>
<path d="M24.4422 18.8647L4.27014 21.1294L12.4255 2.42084L32.5975 0.156123L24.4422 18.8647Z" fill="#42E8E0"/>
<path d="M24.4422 18.8647L4.27014 21.1294L4.77928 21.8228L25.0513 19.5568L33.1067 0.849514L32.5975 0.156134L24.4422 18.8647Z" fill="white"/>
</g>
<defs>
<filter id="filter0_d" x="0.270142" y="0.156128" width="48.4428" height="45.3158" filterUnits="userSpaceOnUse" color-interpolation-filters="sRGB">
<feFlood flood-opacity="0" result="BackgroundImageFix"/>
<feColorMatrix in="SourceAlpha" type="matrix" values="0 0 0 0 0 0 0 0 0 0 0 0 0 0 0 0 0 0 127 0" result="hardAlpha"/>
<feOffset dy="4"/>
<feGaussianBlur stdDeviation="2"/>
<feColorMatrix type="matrix" values="0 0 0 0 0 0 0 0 0 0 0 0 0 0 0 0 0 0 0.2 0"/>
<feBlend mode="normal" in2="BackgroundImageFix" result="effect1_dropShadow"/>
<feBlend mode="normal" in="SourceGraphic" in2="effect1_dropShadow" result="shape"/>
</filter>
</defs>
</svg>
