<svg width="279" height="316" viewBox="0 0 279 316" fill="none" xmlns="http://www.w3.org/2000/svg">
<g filter="url(#filter0_d)">
<g opacity="0.5">
<path opacity="0.5" d="M268.035 78.2695L154.484 12.6634C152.702 11.5294 150.92 11.5294 149.786 12.3394L142.983 16.2272L147.356 19.467V23.0308L144.764 24.1647L144.926 159.103L152.378 166.392L177.971 181.133L259.288 227.139C259.288 227.139 262.203 227.139 262.689 227.139C262.851 227.139 263.013 226.815 263.175 226.167L266.577 228.111L265.443 233.294L272.408 229.245C273.866 228.435 274.838 226.329 274.838 223.413V91.8767C275 86.693 271.922 80.5374 268.035 78.2695ZM264.957 219.687L155.455 156.349C154.484 155.863 153.836 154.405 153.836 153.271V23.1927L176.513 37.7719L261.393 88.4749L263.823 92.2007L265.119 151.003L264.957 219.687Z" fill="url(#paint0_linear)"/>
<path opacity="0.6" d="M272.732 83.6152L262.041 89.7709L263.661 92.2007L264.957 151.003L264.795 219.525L262.851 218.391C262.851 220.497 265.605 231.027 265.605 233.132L271.274 229.893L272.57 229.083C274.028 228.273 275 226.167 275 223.251V91.8767C275 89.1229 274.19 86.2071 272.732 83.6152Z" fill="#0F054C"/>
<path opacity="0.5" d="M260.745 82.4814L147.356 16.7133C143.307 14.4454 140.229 16.8753 140.229 22.059V153.757C140.229 158.941 143.469 165.097 147.356 167.364L260.907 233.133C264.795 235.4 268.035 232.971 268.035 227.787V96.0886C267.873 90.7429 264.795 84.7493 260.745 82.4814ZM261.393 223.737C261.393 224.871 260.745 225.519 259.773 225.033L148.328 160.399C147.356 159.913 146.708 158.455 146.708 157.321V26.1087C146.708 24.9748 147.356 24.3268 148.328 24.8128L259.773 89.285C260.745 89.771 261.393 91.2289 261.393 92.3629V223.737Z" fill="url(#paint1_linear)"/>
<path opacity="0.5" d="M260.745 82.4814L147.356 16.7133C143.307 14.4454 140.229 16.8753 140.229 22.059V153.757C140.229 158.941 143.469 165.097 147.356 167.364L260.907 233.133C264.795 235.4 268.035 232.971 268.035 227.787V96.0886C267.873 90.7429 264.795 84.7493 260.745 82.4814ZM261.393 223.737C261.393 224.871 260.745 225.519 259.773 225.033L148.328 160.399C147.356 159.913 146.708 158.455 146.708 157.321V26.1087C146.708 24.9748 147.356 24.3268 148.328 24.8128L259.773 89.285C260.745 89.771 261.393 91.2289 261.393 92.3629V223.737Z" fill="url(#paint2_linear)"/>
<path opacity="0.5" d="M155.455 156.349C154.484 155.863 153.836 154.405 153.836 153.271V28.0523L148.328 24.8125C147.356 24.3266 146.708 24.8125 146.708 26.1085V157.321C146.708 158.455 147.356 159.913 148.328 160.399L259.773 224.871C260.745 225.357 261.393 224.871 261.393 223.575V217.419L155.455 156.349Z" fill="#251C72"/>
<path opacity="0.4" d="M261.393 223.737C261.393 224.871 260.745 225.519 259.773 225.033L148.328 160.399C147.356 159.913 146.708 158.455 146.708 157.321V26.1086C146.708 24.9747 147.356 24.3267 148.328 24.8127L259.773 89.2849C260.745 89.7708 261.393 91.2288 261.393 92.3627V223.737Z" fill="#42E8E0"/>
</g>
<g opacity="0.5">
<path opacity="0.5" d="M5.29588 91.8767V223.575C5.29588 226.491 6.26778 228.435 7.72564 229.407L14.691 233.456L13.7191 228.111L17.1207 226.167C17.2827 226.653 17.4447 227.139 17.6067 227.139C17.9307 227.139 21.0084 227.139 21.0084 227.139L102.325 181.133L127.918 166.392L135.369 159.103L135.531 24.0027L132.94 22.8688V19.305L137.313 16.0652L130.672 12.3394C129.376 11.5294 127.756 11.6914 125.974 12.6634L12.4232 78.2695C8.53556 80.5374 5.29588 86.693 5.29588 91.8767ZM15.3389 151.003L16.6348 92.2007L19.0646 88.4749L103.944 37.7719L126.622 23.1928V153.109C126.622 154.243 125.974 155.701 125.002 156.187L15.5009 219.687L15.3389 151.003Z" fill="url(#paint3_linear)"/>
<path opacity="0.6" d="M7.56366 83.6152L18.2546 89.7709L16.6348 92.2007L15.3389 151.003L15.5009 219.687L17.4447 218.553C17.4447 220.659 14.691 231.189 14.691 233.294L9.02152 230.055L7.72564 229.245C6.26778 228.435 5.29588 226.329 5.29588 223.413V91.8767C5.29588 89.1229 6.26778 86.2071 7.56366 83.6152Z" fill="#0F054C"/>
<path opacity="0.5" d="M12.5852 96.0884V227.787C12.5852 232.97 15.8249 235.4 19.7125 233.132L133.264 167.364C137.151 165.096 140.391 159.103 140.391 153.757V22.0587C140.391 16.875 137.151 14.4452 133.264 16.713L19.5505 82.4812C15.6629 84.749 12.5852 90.7427 12.5852 96.0884ZM19.0646 92.5246C19.0646 91.3907 19.7125 89.9327 20.6844 89.4468L132.13 24.9746C133.102 24.4886 133.75 24.9746 133.75 26.2705V157.483C133.75 158.617 133.102 160.075 132.13 160.561L20.6844 225.033C19.7125 225.519 19.0646 225.033 19.0646 223.737V92.5246Z" fill="url(#paint4_linear)"/>
<path opacity="0.5" d="M12.5852 96.0884V227.787C12.5852 232.97 15.8249 235.4 19.7125 233.132L133.264 167.364C137.151 165.096 140.391 159.103 140.391 153.757V22.0587C140.391 16.875 137.151 14.4452 133.264 16.713L19.5505 82.4812C15.6629 84.749 12.5852 90.7427 12.5852 96.0884ZM19.0646 92.5246C19.0646 91.3907 19.7125 89.9327 20.6844 89.4468L132.13 24.9746C133.102 24.4886 133.75 24.9746 133.75 26.2705V157.483C133.75 158.617 133.102 160.075 132.13 160.561L20.6844 225.033C19.7125 225.519 19.0646 225.033 19.0646 223.737V92.5246Z" fill="url(#paint5_linear)"/>
<path opacity="0.5" d="M125.002 156.349C125.974 155.863 126.622 154.405 126.622 153.271V28.0523L132.13 24.8125C133.102 24.3266 133.75 24.8125 133.75 26.1085V157.321C133.75 158.455 133.102 159.913 132.13 160.399L20.6844 224.871C19.7125 225.357 19.0646 224.871 19.0646 223.575V217.419L125.002 156.349Z" fill="#251C72"/>
<path opacity="0.4" d="M19.0646 223.737C19.0646 224.871 19.7125 225.519 20.6844 225.033L132.13 160.561C133.102 160.075 133.75 158.617 133.75 157.483V26.2705C133.75 25.1365 133.102 24.4886 132.13 24.9745L20.6844 89.2847C19.7125 89.7707 19.0646 91.2286 19.0646 92.3626V223.737Z" fill="#42E8E0"/>
</g>
<path d="M140.229 166.878L109.128 148.735V184.859L140.229 202.84L171.33 184.859V148.735L140.229 166.878Z" fill="#42E8E0"/>
<path d="M140.229 202.84L109.128 184.859V148.735L140.229 166.878V202.84Z" fill="#42E8E0"/>
<path d="M171.33 184.859L140.229 202.84V166.878L171.33 148.735V184.859Z" fill="#2FD3C7"/>
<path d="M140.229 166.878L109.128 148.735L140.229 130.754L171.33 148.735L140.229 166.878Z" fill="#42E8E0"/>
<path d="M140.229 166.878L110.424 149.545L109.128 150.355L140.229 168.336L171.33 150.355L170.034 149.545L140.229 166.878Z" fill="white"/>
<path d="M180.725 189.881L149.462 171.9V207.862L180.725 225.843L211.826 207.862V171.9L180.725 189.881Z" fill="#42E8E0"/>
<path d="M180.725 225.843L149.462 207.862V171.9L180.725 189.881V225.843Z" fill="#42E8E0"/>
<path d="M211.826 207.862L180.725 225.843V189.881L211.826 171.9V207.862Z" fill="#2FD3C7"/>
<path d="M180.725 189.881L149.462 171.9L180.725 153.919L211.826 171.9L180.725 189.881Z" fill="#42E8E0"/>
<path d="M180.725 189.881L150.92 172.71L149.462 173.52L180.725 191.501L211.826 173.52L210.53 172.71L180.725 189.881Z" fill="white"/>
<path d="M221.221 213.046L189.958 195.065V231.027L221.221 249.008L252.322 231.027V195.065L221.221 213.046Z" fill="#42E8E0"/>
<path d="M221.221 249.008L189.958 231.027V195.065L221.221 213.046V249.008Z" fill="#42E8E0"/>
<path d="M252.322 231.027L221.221 249.008V213.046L252.322 195.065V231.027Z" fill="#2FD3C7"/>
<path d="M221.221 213.046L189.958 195.065L221.221 177.084L252.322 195.065L221.221 213.046Z" fill="#42E8E0"/>
<path d="M221.221 213.046L191.416 195.713L189.958 196.523L221.221 214.504L252.322 196.523V195.065L221.221 213.046Z" fill="white"/>
<path d="M99.7328 191.501L68.6318 173.52V209.482L99.7328 227.463L130.834 209.482V173.52L99.7328 191.501Z" fill="#42E8E0"/>
<path d="M99.7328 227.463L68.6318 209.482V173.52L99.7328 191.501V227.463Z" fill="#42E8E0"/>
<path d="M130.834 209.482L99.7328 227.463V191.501L130.834 173.52V209.482Z" fill="#2FD3C7"/>
<path d="M99.7328 191.501L68.6318 173.52L99.7328 155.539L130.834 173.52L99.7328 191.501Z" fill="#42E8E0"/>
<path d="M99.7328 191.501L69.9277 174.168L68.6318 174.978L99.7328 192.959L130.834 174.978L129.538 174.168L99.7328 191.501Z" fill="white"/>
<path d="M140.229 214.503L109.128 196.522V232.484L140.229 250.465L171.33 232.484V196.522L140.229 214.503Z" fill="#42E8E0"/>
<path d="M140.229 250.465L109.128 232.484V196.522L140.229 214.503V250.465Z" fill="#42E8E0"/>
<path d="M171.33 232.484L140.229 250.465V214.503L171.33 196.522V232.484Z" fill="#2FD3C7"/>
<path d="M140.229 214.503L109.128 196.522L140.229 178.542L171.33 196.522L140.229 214.503Z" fill="#42E8E0"/>
<path d="M140.229 214.504L110.424 197.333L109.128 198.142L140.229 216.123L171.33 198.142L170.034 197.333L140.229 214.504Z" fill="white"/>
<path d="M180.725 237.668L149.462 219.687V255.649L180.725 273.63L211.826 255.649V219.687L180.725 237.668Z" fill="#42E8E0"/>
<path d="M180.725 273.63L149.462 255.649V219.687L180.725 237.668V273.63Z" fill="#42E8E0"/>
<path d="M211.826 255.649L180.725 273.63V237.668L211.826 219.687V255.649Z" fill="#2FD3C7"/>
<path d="M180.725 237.668L149.462 219.687L180.725 201.706L211.826 219.687L180.725 237.668Z" fill="#42E8E0"/>
<path d="M180.725 237.668L150.92 220.497L149.462 221.145L180.725 239.126L211.826 221.145V219.687L180.725 237.668Z" fill="white"/>
<path d="M59.2367 216.123L28.1357 198.142V234.104L59.2367 252.085L90.4997 234.104V198.142L59.2367 216.123Z" fill="#42E8E0"/>
<path d="M59.2367 252.085L28.1357 234.104V198.142L59.2367 216.123V252.085Z" fill="#42E8E0"/>
<path d="M90.4997 234.104L59.2367 252.085V216.123L90.4997 198.142V234.104Z" fill="#2FD3C7"/>
<path d="M59.2367 216.123L28.1357 198.142L59.2367 180.161L90.4997 198.142L59.2367 216.123Z" fill="#42E8E0"/>
<path d="M59.2367 216.123L28.1357 198.142V199.6L59.2367 217.743L90.4997 199.6L89.0418 198.952L59.2367 216.123Z" fill="white"/>
<path d="M99.7328 239.126L68.6318 221.145V257.107L99.7328 275.25L130.834 257.107V221.145L99.7328 239.126Z" fill="#42E8E0"/>
<path d="M99.7328 275.25L68.6318 257.107V221.145L99.7328 239.126V275.25Z" fill="#42E8E0"/>
<path d="M130.834 257.107L99.7328 275.25V239.126L130.834 221.145V257.107Z" fill="#2FD3C7"/>
<path d="M99.7328 239.126L68.6318 221.145L99.7328 203.164L130.834 221.145L99.7328 239.126Z" fill="#42E8E0"/>
<path d="M99.7328 239.126L68.6318 221.145V222.765L99.7328 240.746L130.834 222.765L129.538 221.955L99.7328 239.126Z" fill="white"/>
<path d="M140.229 262.291L109.128 244.31V280.272L140.229 298.253L171.33 280.272V244.31L140.229 262.291Z" fill="#42E8E0"/>
<path d="M140.229 298.253L109.128 280.272V244.31L140.229 262.291V298.253Z" fill="#42E8E0"/>
<path d="M171.33 280.272L140.229 298.253V262.291L171.33 244.31V280.272Z" fill="#2FD3C7"/>
<path d="M140.229 262.291L109.128 244.31L140.229 226.329L171.33 244.31L140.229 262.291Z" fill="#42E8E0"/>
<path d="M140.229 262.291L109.128 244.31V245.93L140.229 263.911L171.33 245.93V244.31L140.229 262.291Z" fill="white"/>
<path d="M140.229 119.091L109.128 101.11V137.072L140.229 155.053L171.33 137.072V101.11L140.229 119.091Z" fill="#42E8E0"/>
<path d="M140.229 155.053L109.128 137.072V101.11L140.229 119.091V155.053Z" fill="#42E8E0"/>
<path d="M171.33 137.072L140.229 155.053V119.091L171.33 101.11V137.072Z" fill="#2FD3C7"/>
<path d="M140.229 119.091L109.128 101.11L140.229 83.1292L171.33 101.11L140.229 119.091Z" fill="#42E8E0"/>
<path d="M140.229 119.091L110.424 101.92L109.128 102.568L140.229 120.549L171.33 102.568L170.034 101.92L140.229 119.091Z" fill="white"/>
<path opacity="0.7" d="M140.229 256.459L119.009 244.148L140.229 231.837L161.449 244.148L140.229 256.459Z" fill="#18B2A3"/>
<path opacity="0.7" d="M99.7328 233.295L78.5128 221.145L99.7328 208.834L120.953 221.145L99.7328 233.295Z" fill="#18B2A3"/>
<path opacity="0.7" d="M180.725 231.837L159.343 219.525L180.725 207.214L201.945 219.525L180.725 231.837Z" fill="#18B2A3"/>
<path opacity="0.7" d="M221.221 207.376L200.001 195.065L221.221 182.916L242.441 195.065L221.221 207.376Z" fill="#18B2A3"/>
<path opacity="0.7" d="M59.2367 210.292L38.0167 197.981L59.2367 185.669L80.4567 197.981L59.2367 210.292Z" fill="#18B2A3"/>
<path d="M180.725 142.094L149.462 124.113V160.075L180.725 178.056L211.826 160.075V124.113L180.725 142.094Z" fill="#42E8E0"/>
<path d="M180.725 178.056L149.462 160.075V124.113L180.725 142.094V178.056Z" fill="#42E8E0"/>
<path d="M211.826 160.075L180.725 178.056V142.094L211.826 124.113V160.075Z" fill="#2FD3C7"/>
<path d="M180.725 142.094L149.462 124.113L180.725 106.132L211.826 124.113L180.725 142.094Z" fill="#42E8E0"/>
<path d="M180.725 142.094L150.92 124.923L149.462 125.733L180.725 143.714L211.826 125.733L210.53 124.923L180.725 142.094Z" fill="white"/>
<path d="M221.221 165.259L189.958 147.278V183.239L221.221 201.22L252.322 183.239V147.278L221.221 165.259Z" fill="#42E8E0"/>
<path d="M221.221 201.22L189.958 183.239V147.278L221.221 165.259V201.22Z" fill="#42E8E0"/>
<path d="M252.322 183.239L221.221 201.22V165.259L252.322 147.278V183.239Z" fill="#2FD3C7"/>
<path d="M221.221 165.258L189.958 147.278L221.221 129.297L252.322 147.278L221.221 165.258Z" fill="#42E8E0"/>
<path d="M221.221 165.259L191.416 148.088L189.958 148.735L221.221 166.878L252.322 148.735V147.278L221.221 165.259Z" fill="white"/>
<path d="M99.7328 143.714L68.6318 125.733V161.695L99.7328 179.675L130.834 161.695V125.733L99.7328 143.714Z" fill="#42E8E0"/>
<path d="M99.7328 179.675L68.6318 161.695V125.733L99.7328 143.714V179.675Z" fill="#42E8E0"/>
<path d="M130.834 161.695L99.7328 179.675V143.714L130.834 125.733V161.695Z" fill="#2FD3C7"/>
<path d="M99.7328 143.714L68.6318 125.733L99.7328 107.752L130.834 125.733L99.7328 143.714Z" fill="#42E8E0"/>
<path d="M99.7328 143.714L69.9277 126.543L68.6318 127.353L99.7328 145.334L130.834 127.353L129.538 126.543L99.7328 143.714Z" fill="white"/>
<path d="M140.229 166.878L109.128 148.735V184.859L140.229 202.84L171.33 184.859V148.735L140.229 166.878Z" fill="#42E8E0"/>
<path d="M140.229 202.84L109.128 184.859V148.735L140.229 166.878V202.84Z" fill="#42E8E0"/>
<path d="M171.33 184.859L140.229 202.84V166.878L171.33 148.735V184.859Z" fill="#2FD3C7"/>
<path d="M140.229 166.878L109.128 148.735L140.229 130.754L171.33 148.735L140.229 166.878Z" fill="#42E8E0"/>
<path d="M140.229 166.878L110.424 149.545L109.128 150.355L140.229 168.336L171.33 150.355L170.034 149.545L140.229 166.878Z" fill="white"/>
<path d="M180.725 189.881L149.462 171.9V207.862L180.725 225.843L211.826 207.862V171.9L180.725 189.881Z" fill="#42E8E0"/>
<path d="M180.725 225.843L149.462 207.862V171.9L180.725 189.881V225.843Z" fill="#42E8E0"/>
<path d="M211.826 207.862L180.725 225.843V189.881L211.826 171.9V207.862Z" fill="#2FD3C7"/>
<path d="M180.725 189.881L149.462 171.9L180.725 153.919L211.826 171.9L180.725 189.881Z" fill="#42E8E0"/>
<path d="M180.725 189.881L150.92 172.71L149.462 173.52L180.725 191.501L211.826 173.52V171.9L180.725 189.881Z" fill="white"/>
<path d="M59.2367 168.336L28.1357 150.355V186.317L59.2367 204.298L90.4997 186.317V150.355L59.2367 168.336Z" fill="#42E8E0"/>
<path d="M59.2367 204.298L28.1357 186.317V150.355L59.2367 168.336V204.298Z" fill="#42E8E0"/>
<path d="M90.4997 186.317L59.2367 204.298V168.336L90.4997 150.355V186.317Z" fill="#2FD3C7"/>
<path d="M59.2367 168.336L28.1357 150.355L59.2367 132.374L90.4997 150.355L59.2367 168.336Z" fill="#42E8E0"/>
<path d="M59.2367 168.336L29.4316 151.165L28.1357 151.975L59.2367 169.956L90.4997 151.975L89.0418 151.165L59.2367 168.336Z" fill="white"/>
<path d="M99.7328 191.501L68.6318 173.52V209.482L99.7328 227.463L130.834 209.482V173.52L99.7328 191.501Z" fill="#42E8E0"/>
<path d="M99.7328 227.463L68.6318 209.482V173.52L99.7328 191.501V227.463Z" fill="#42E8E0"/>
<path d="M130.834 209.482L99.7328 227.463V191.501L130.834 173.52V209.482Z" fill="#2FD3C7"/>
<path d="M99.7328 191.501L68.6318 173.52L99.7328 155.539L130.834 173.52L99.7328 191.501Z" fill="#42E8E0"/>
<path d="M99.7328 191.501L68.6318 173.52V174.978L99.7328 192.959L130.834 174.978L129.538 174.168L99.7328 191.501Z" fill="white"/>
<path d="M140.229 214.503L109.128 196.522V232.484L140.229 250.465L171.33 232.484V196.522L140.229 214.503Z" fill="#42E8E0"/>
<path d="M140.229 250.465L109.128 232.484V196.522L140.229 214.503V250.465Z" fill="#42E8E0"/>
<path d="M171.33 232.484L140.229 250.465V214.503L171.33 196.522V232.484Z" fill="#2FD3C7"/>
<path d="M140.229 214.503L109.128 196.522L140.229 178.542L171.33 196.522L140.229 214.503Z" fill="#42E8E0"/>
<path d="M140.229 214.503L109.128 196.522V198.142L140.229 216.123L171.33 198.142V196.522L140.229 214.503Z" fill="white"/>
<path opacity="0.7" d="M221.221 159.913L200.001 147.601L221.221 135.29L242.441 147.601L221.221 159.913Z" fill="#18B2A3"/>
<path opacity="0.7" d="M59.2367 162.666L38.0167 150.517L59.2367 138.206L80.4567 150.517L59.2367 162.666Z" fill="#18B2A3"/>
<path d="M140.229 71.3039L109.128 53.323V89.2849L140.229 107.266L171.33 89.2849V53.323L140.229 71.3039Z" fill="#42E8E0"/>
<path d="M140.229 107.266L109.128 89.2849V53.323L140.229 71.3039V107.266Z" fill="#42E8E0"/>
<path d="M171.33 89.2849L140.229 107.266V71.3039L171.33 53.323V89.2849Z" fill="#2FD3C7"/>
<path d="M140.229 71.3039L109.128 53.323L140.229 35.342L171.33 53.323L140.229 71.3039Z" fill="#42E8E0"/>
<path d="M140.229 71.3039L109.128 53.323V54.9429L140.229 72.9238L171.33 54.9429V53.323L140.229 71.3039Z" fill="white"/>
<path d="M180.725 94.4685L149.462 76.4875V112.449L180.725 130.43L211.826 112.449V76.4875L180.725 94.4685Z" fill="#42E8E0"/>
<path d="M180.725 130.43L149.462 112.449V76.4875L180.725 94.4685V130.43Z" fill="#42E8E0"/>
<path d="M211.826 112.449L180.725 130.43V94.4685L211.826 76.4875V112.449Z" fill="#2FD3C7"/>
<path d="M180.725 94.4685L149.462 76.4875L180.725 58.5066L211.826 76.4875L180.725 94.4685Z" fill="#42E8E0"/>
<path d="M180.725 94.4685L149.462 76.4875V77.9455L180.725 95.9264L211.826 77.9455V76.4875L180.725 94.4685Z" fill="white"/>
<path d="M221.221 117.471L189.958 99.4902V135.452L221.221 153.433L252.322 135.452V99.4902L221.221 117.471Z" fill="#42E8E0"/>
<path d="M221.221 153.433L189.958 135.452V99.4902L221.221 117.471V153.433Z" fill="#42E8E0"/>
<path d="M252.322 135.452L221.221 153.433V117.471L252.322 99.4902V135.452Z" fill="#2FD3C7"/>
<path d="M221.221 117.471L189.958 99.4902L221.221 81.5093L252.322 99.4902L221.221 117.471Z" fill="#42E8E0"/>
<path d="M221.221 117.471L189.958 99.4902V101.11L221.221 119.091L252.322 101.11V99.4902L221.221 117.471Z" fill="white"/>
<path d="M99.7328 95.9265L68.6318 77.9456V113.907L99.7328 131.888L130.834 113.907V77.9456L99.7328 95.9265Z" fill="#42E8E0"/>
<path d="M99.7328 131.888L68.6318 113.907V77.9456L99.7328 95.9265V131.888Z" fill="#42E8E0"/>
<path d="M130.834 113.907L99.7328 131.888V95.9265L130.834 77.9456V113.907Z" fill="#2FD3C7"/>
<path d="M99.7328 95.9265L68.6318 77.9455L99.7328 59.9646L130.834 77.9455L99.7328 95.9265Z" fill="#42E8E0"/>
<path d="M99.7328 95.9265L68.6318 77.9456V79.5655L99.7328 97.5464L130.834 79.5655V77.9456L99.7328 95.9265Z" fill="white"/>
<path d="M59.2367 120.549L28.1357 102.568V138.53L59.2367 156.673L90.4997 138.53V102.568L59.2367 120.549Z" fill="#42E8E0"/>
<path d="M59.2367 156.673L28.1357 138.53V102.568L59.2367 120.549V156.673Z" fill="#42E8E0"/>
<path d="M90.4997 138.53L59.2367 156.673V120.549L90.4997 102.568V138.53Z" fill="#2FD3C7"/>
<path d="M59.2367 120.549L28.1357 102.568L59.2367 84.5872L90.4997 102.568L59.2367 120.549Z" fill="#42E8E0"/>
<path d="M59.2367 120.549L28.1357 102.568V104.188L59.2367 122.169L90.4997 104.188V102.568L59.2367 120.549Z" fill="white"/>
<path opacity="0.7" d="M140.229 209.32L119.009 197.009L140.229 184.697L161.449 197.009L140.229 209.32Z" fill="#18B2A3"/>
<path opacity="0.7" d="M99.7328 186.155L78.5128 173.844L99.7328 161.695L120.953 173.844L99.7328 186.155Z" fill="#18B2A3"/>
<path opacity="0.7" d="M180.725 184.535L159.343 172.386L180.725 160.075L201.945 172.386L180.725 184.535Z" fill="#18B2A3"/>
<path d="M140.229 119.577L109.128 101.596V137.558L140.229 155.539L171.33 137.558V101.596L140.229 119.577Z" fill="#42E8E0"/>
<path d="M140.229 155.539L109.128 137.558V101.596L140.229 119.577V155.539Z" fill="#42E8E0"/>
<path d="M171.33 137.558L140.229 155.539V119.577L171.33 101.596V137.558Z" fill="#2FD3C7"/>
<path d="M140.229 119.577L109.128 101.596L140.229 83.6152L171.33 101.596L140.229 119.577Z" fill="#42E8E0"/>
<path d="M140.229 119.577L110.424 102.406L109.128 103.216L140.229 121.197L171.33 103.216L170.034 102.406L140.229 119.577Z" fill="white"/>
<path d="M180.725 142.742L149.462 124.761V160.723L180.725 178.704L211.826 160.723V124.761L180.725 142.742Z" fill="#42E8E0"/>
<path d="M180.725 178.704L149.462 160.723V124.761L180.725 142.742V178.704Z" fill="#42E8E0"/>
<path d="M211.826 160.723L180.725 178.704V142.742L211.826 124.761V160.723Z" fill="#2FD3C7"/>
<path d="M180.725 142.742L149.462 124.761L180.725 106.78L211.826 124.761L180.725 142.742Z" fill="#42E8E0"/>
<path d="M180.725 142.742L150.92 125.571L149.462 126.219L180.725 144.362L211.826 126.219V124.761L180.725 142.742Z" fill="white"/>
<path d="M99.7328 144.362L68.6318 126.219V162.343L99.7328 180.324L130.834 162.343V126.219L99.7328 144.362Z" fill="#42E8E0"/>
<path d="M99.7328 180.324L68.6318 162.343V126.219L99.7328 144.362V180.324Z" fill="#42E8E0"/>
<path d="M130.834 162.343L99.7328 180.324V144.362L130.834 126.219V162.343Z" fill="#2FD3C7"/>
<path d="M99.7328 144.362L68.6318 126.219L99.7328 108.238L130.834 126.219L99.7328 144.362Z" fill="#42E8E0"/>
<path d="M99.7328 144.362L68.6318 126.219V127.839L99.7328 145.82L130.834 127.839L129.538 127.029L99.7328 144.362Z" fill="white"/>
<path d="M140.229 167.364L109.128 149.383V185.345L140.229 203.326L171.33 185.345V149.383L140.229 167.364Z" fill="#42E8E0"/>
<path d="M140.229 203.326L109.128 185.345V149.383L140.229 167.364V203.326Z" fill="#42E8E0"/>
<path d="M171.33 185.345L140.229 203.326V167.364L171.33 149.383V185.345Z" fill="#2FD3C7"/>
<path d="M140.229 167.364L109.128 149.383L140.229 131.402L171.33 149.383L140.229 167.364Z" fill="#42E8E0"/>
<path d="M140.229 167.364L109.128 149.383V151.003L140.229 168.984L171.33 151.003V149.383L140.229 167.364Z" fill="white"/>
<path d="M131.806 151.489L18.2546 85.8831C16.4728 84.9112 14.853 84.7492 13.5571 85.5591L6.75373 89.4469L11.1273 92.6867V96.2505L8.53556 97.3844L8.69754 232.484L16.1488 239.774L41.7424 254.515L123.059 300.52C123.059 300.52 125.974 300.52 126.46 300.52C126.622 300.52 126.784 300.197 126.946 299.549L130.348 301.492L129.214 306.676L136.179 302.626C137.637 301.816 138.609 299.711 138.609 296.795V165.096C138.771 159.913 135.693 153.757 131.806 151.489ZM128.728 292.907L19.2265 229.407C18.2546 228.921 17.6067 227.463 17.6067 226.329V96.4125L40.2845 110.992L125.164 161.695L127.594 165.42L128.89 224.223L128.728 292.907Z" fill="url(#paint6_linear)"/>
<path opacity="0.6" d="M136.665 156.835L125.974 162.991L127.594 165.42L128.89 224.223L128.728 292.907L126.784 291.773C126.784 293.879 129.538 304.408 129.538 306.514L135.207 303.274L136.503 302.464C137.961 301.654 138.933 299.549 138.933 296.633V164.934C138.771 162.343 137.961 159.427 136.665 156.835Z" fill="#0F054C"/>
<path d="M124.678 155.701L11.1273 89.9328C7.23969 87.6649 4 90.0948 4 95.2785V226.977C4 232.16 7.23969 238.316 11.1273 240.584L124.678 306.352C128.566 308.62 131.806 306.19 131.806 301.006V169.308C131.644 163.962 128.566 157.969 124.678 155.701ZM125.164 296.957C125.164 298.091 124.516 298.739 123.545 298.253L12.0992 233.618C11.1273 233.132 10.4794 231.674 10.4794 230.54V99.3282C10.4794 98.1943 11.1273 97.5463 12.0992 98.0323L123.545 162.505C124.516 162.99 125.164 164.448 125.164 165.582V296.957Z" fill="url(#paint7_linear)"/>
<path d="M124.678 155.701L11.1273 89.9328C7.23969 87.6649 4 90.0948 4 95.2785V226.977C4 232.16 7.23969 238.316 11.1273 240.584L124.678 306.352C128.566 308.62 131.806 306.19 131.806 301.006V169.308C131.644 163.962 128.566 157.969 124.678 155.701ZM125.164 296.957C125.164 298.091 124.516 298.739 123.545 298.253L12.0992 233.618C11.1273 233.132 10.4794 231.674 10.4794 230.54V99.3282C10.4794 98.1943 11.1273 97.5463 12.0992 98.0323L123.545 162.505C124.516 162.99 125.164 164.448 125.164 165.582V296.957Z" fill="url(#paint8_linear)"/>
<path d="M19.2265 229.407C18.2546 228.921 17.6067 227.463 17.6067 226.329V101.272L12.0992 98.0323C11.1273 97.5463 10.4794 98.0323 10.4794 99.3282V230.54C10.4794 231.674 11.1273 233.132 12.0992 233.618L123.545 298.09C124.516 298.576 125.164 298.091 125.164 296.795V290.639L19.2265 229.407Z" fill="#251C72"/>
<path opacity="0.7" d="M125.164 296.957C125.164 298.091 124.516 298.739 123.545 298.253L12.0992 233.618C11.1273 233.132 10.4794 231.675 10.4794 230.541V99.3283C10.4794 98.1944 11.1273 97.5464 12.0992 98.0324L123.545 162.505C124.516 162.991 125.164 164.448 125.164 165.582V296.957Z" fill="#42E8E0"/>
<path d="M138.771 165.096V296.795C138.771 299.711 139.743 301.654 141.201 302.626L148.166 306.676L147.032 301.492L150.434 299.549C150.596 300.035 150.758 300.52 150.92 300.52C151.244 300.52 154.322 300.52 154.322 300.52L235.638 254.515L261.231 239.774L268.683 232.484L268.845 97.3844L266.253 96.2505V92.6867L270.626 89.4469L263.823 85.5591C262.527 84.7492 260.907 84.9112 259.126 85.8831L145.898 151.489C142.011 153.757 138.771 159.913 138.771 165.096ZM148.814 224.223L150.11 165.42L152.54 161.695L237.42 110.992L260.097 96.4125V226.329C260.097 227.463 259.45 228.921 258.478 229.407L148.976 292.745L148.814 224.223Z" fill="url(#paint9_linear)"/>
<path opacity="0.6" d="M138.771 165.096V296.795C138.771 299.711 139.743 301.654 141.201 302.626L148.166 306.676L147.032 301.492L150.434 299.549C150.596 300.035 150.758 300.52 150.92 300.52C151.244 300.52 154.322 300.52 154.322 300.52L235.638 254.515L261.231 239.774L268.683 232.484L268.845 97.3844L266.253 96.2505V92.6867L270.626 89.4469L263.823 85.5591C262.527 84.7492 260.907 84.9112 259.126 85.8831L145.898 151.489C142.011 153.757 138.771 159.913 138.771 165.096ZM148.814 224.223L150.11 165.42L152.54 161.695L237.42 110.992L260.097 96.4125V226.329C260.097 227.463 259.45 228.921 258.478 229.407L148.976 292.745L148.814 224.223Z" fill="#0F054C"/>
<path d="M145.898 169.146V300.844C145.898 306.028 149.138 308.458 153.026 306.19L266.577 240.422C270.464 238.154 273.704 232.16 273.704 226.815V95.2785C273.704 90.0948 270.464 87.6649 266.577 89.9328L153.026 155.701C149.138 157.969 145.898 163.962 145.898 169.146ZM152.378 165.582C152.378 164.448 153.026 162.99 153.998 162.505L265.443 98.0323C266.415 97.5463 267.063 98.0323 267.063 99.3282V230.541C267.063 231.674 266.415 233.132 265.443 233.618L153.998 298.091C153.026 298.577 152.378 298.091 152.378 296.795V165.582Z" fill="url(#paint10_linear)"/>
<path opacity="0.75" d="M145.898 169.146V300.844C145.898 306.028 149.138 308.458 153.026 306.19L266.577 240.422C270.464 238.154 273.704 232.16 273.704 226.815V95.2785C273.704 90.0948 270.464 87.6649 266.577 89.9328L153.026 155.701C149.138 157.969 145.898 163.962 145.898 169.146ZM152.378 165.582C152.378 164.448 153.026 162.99 153.998 162.505L265.443 98.0323C266.415 97.5463 267.063 98.0323 267.063 99.3282V230.541C267.063 231.674 266.415 233.132 265.443 233.618L153.998 298.091C153.026 298.577 152.378 298.091 152.378 296.795V165.582Z" fill="#0F054C"/>
<path d="M10.6414 98.3564C9.99342 98.1944 9.50747 98.8423 9.50747 99.8143V231.027C9.50747 232.16 10.1554 233.618 11.1273 234.104L122.573 298.577C123.221 298.901 123.707 298.739 124.03 298.253C123.868 298.253 123.707 298.253 123.545 298.091L12.0992 233.618C11.1273 233.132 10.4794 231.675 10.4794 230.541V99.3283C10.4794 98.8423 10.4794 98.5183 10.6414 98.3564Z" fill="white"/>
<path d="M124.678 155.539L11.1273 89.9329C9.1835 88.799 7.40167 88.799 6.1058 89.7709C7.23969 89.2849 8.69755 89.6089 10.1554 90.4189L123.707 156.187C127.594 158.455 130.834 164.449 130.834 169.794V301.492C130.834 304.084 130.024 306.028 128.728 307C130.51 306.352 131.806 304.246 131.806 301.006V169.308C131.644 163.963 128.566 157.807 124.678 155.539Z" fill="white"/>
<path d="M267.063 98.3564C267.711 98.1944 268.197 98.8423 268.197 99.8143V231.027C268.197 232.16 267.549 233.618 266.577 234.104L155.131 298.577C154.484 298.901 153.998 298.739 153.674 298.253C153.836 298.253 153.998 298.253 154.16 298.091L265.605 233.618C266.577 233.132 267.225 231.675 267.225 230.541V99.3283C267.225 98.8423 267.063 98.5183 267.063 98.3564Z" fill="#42E8E0"/>
<path d="M153.026 155.539L266.577 89.7708C268.521 88.6369 270.302 88.6369 271.598 89.6088C270.464 89.1228 269.007 89.4468 267.549 90.2568L153.998 156.187C150.11 158.455 146.87 164.448 146.87 169.794V301.492C146.87 304.084 147.68 306.028 148.976 307C147.194 306.352 145.898 304.246 145.898 301.006V169.308C145.898 163.962 149.138 157.807 153.026 155.539Z" fill="#42E8E0"/>
<path d="M258.478 229.407C259.449 228.921 260.097 227.463 260.097 226.329V101.272L265.605 98.0323C266.577 97.5463 267.225 98.0323 267.225 99.3282V230.54C267.225 231.674 266.577 233.132 265.605 233.618L154.16 298.09C153.188 298.576 152.54 298.091 152.54 296.795V290.639L258.478 229.407Z" fill="#251C72"/>
<path opacity="0.2" d="M152.378 296.957C152.378 298.091 153.026 298.738 153.998 298.253L265.443 233.78C266.415 233.294 267.063 231.836 267.063 230.702V99.4902C267.063 98.3562 266.415 97.7083 265.443 98.1943L153.998 162.504C153.026 162.99 152.378 164.448 152.378 165.582V296.957Z" fill="#42E8E0"/>
<path d="M10.6414 98.3564C9.99342 98.1944 9.50747 98.8423 9.50747 99.8143V231.027C9.50747 232.16 10.1554 233.618 11.1273 234.104L122.573 298.577C123.221 298.901 123.707 298.739 124.03 298.253C123.868 298.253 123.707 298.253 123.545 298.091L12.0992 233.618C11.1273 233.132 10.4794 231.675 10.4794 230.541V99.3283C10.4794 98.8423 10.4794 98.5183 10.6414 98.3564Z" fill="#42E8E0"/>
<path d="M124.678 155.539L11.1273 89.9329C9.1835 88.799 7.40167 88.799 6.1058 89.7709C7.23969 89.2849 8.69755 89.6089 10.1554 90.4189L123.707 156.187C127.594 158.455 130.834 164.449 130.834 169.794V301.492C130.834 304.084 130.024 306.028 128.728 307C130.51 306.352 131.806 304.246 131.806 301.006V169.308C131.644 163.963 128.566 157.807 124.678 155.539Z" fill="#42E8E0"/>
<path d="M147.032 150.841L261.069 85.2352C263.499 83.7773 264.795 81.9954 264.795 80.2135V72.276L260.907 75.8398L257.506 73.8959C257.83 73.4099 258.154 73.0859 257.992 72.924C257.83 72.6 256.372 70.0081 256.372 70.0081L175.865 22.5449L150.434 7.47979L140.391 4.56396L23.2761 71.79L23.6001 74.5439L20.5224 76.3257L15.5009 74.0579V81.9954C15.5009 83.4533 16.3108 84.9112 18.0926 85.8832L131.644 151.489C135.693 153.757 142.497 153.433 147.032 150.841ZM193.36 112.774L141.687 140.96L137.313 140.798L50.9755 92.3628L27.0018 80.0515L139.581 15.2553C140.553 14.6074 142.173 14.6074 143.145 15.0933L252.646 78.2696L193.36 112.774Z" fill="url(#paint11_linear)"/>
<path opacity="0.6" d="M138.771 152.947V140.636L141.687 140.798L193.36 112.773L252.646 78.4315L250.702 77.2976C252.484 76.1636 263.013 73.4098 264.795 72.2759V78.7555V80.2134C264.795 81.9953 263.499 83.7772 261.069 85.2351L147.032 150.841C144.764 152.299 141.687 152.947 138.771 152.947Z" fill="#0F054C"/>
<path d="M147.032 142.58L261.069 76.8116C265.605 74.2198 266.091 70.17 262.203 67.9022L148.652 2.458C144.764 0.190135 137.961 0.514116 133.426 3.10596L19.2265 68.8741C14.691 71.466 14.205 75.5157 18.0926 77.7836L131.644 143.39C135.693 145.496 142.497 145.172 147.032 142.58ZM140.715 138.854C139.743 139.502 138.123 139.502 137.151 139.016L25.7059 74.5438C24.734 74.0578 24.896 73.0859 26.0299 72.5999L139.743 6.99374C140.715 6.34577 142.335 6.34577 143.307 6.83174L254.914 71.304C255.886 71.7899 255.724 72.7619 254.59 73.2478L140.715 138.854Z" fill="url(#paint12_linear)"/>
<path d="M147.032 142.58L261.069 76.8116C265.605 74.2198 266.091 70.17 262.203 67.9022L148.652 2.458C144.764 0.190135 137.961 0.514116 133.426 3.10596L19.2265 68.8741C14.691 71.466 14.205 75.5157 18.0926 77.7836L131.644 143.39C135.693 145.496 142.497 145.172 147.032 142.58ZM140.715 138.854C139.743 139.502 138.123 139.502 137.151 139.016L25.7059 74.5438C24.734 74.0578 24.896 73.0859 26.0299 72.5999L139.743 6.99374C140.715 6.34577 142.335 6.34577 143.307 6.83174L254.914 71.304C255.886 71.7899 255.724 72.7619 254.59 73.2478L140.715 138.854Z" fill="url(#paint13_linear)"/>
<path d="M254.752 70.1699L143.145 5.69773C142.173 5.21175 140.715 5.21175 139.581 5.85972L25.8679 71.4659C25.058 71.9518 24.734 72.5998 25.22 73.0858C25.382 72.9238 25.5439 72.7618 25.8679 72.5998L139.743 6.99365C140.715 6.34569 142.335 6.34569 143.307 6.83166L254.914 71.3039C255.076 71.4659 255.238 71.4659 255.238 71.6278C255.562 71.1419 255.4 70.4939 254.752 70.1699Z" fill="#42E8E0"/>
<path d="M261.069 75.8397L147.032 141.446C142.497 144.038 135.693 144.362 131.806 142.094L18.2546 76.4876C16.6348 75.5157 15.8249 74.3818 15.6629 73.2478C15.3389 74.8677 16.3108 76.4876 18.2546 77.6216L131.806 143.228C135.693 145.496 142.497 145.172 147.032 142.58L261.069 76.8116C263.823 75.1917 265.119 73.0859 264.795 71.304C264.633 72.9239 263.337 74.5438 261.069 75.8397Z" fill="#42E8E0"/>
<path d="M143.145 15.0933C142.173 14.6073 140.715 14.6073 139.581 15.2553L31.0514 77.7836L25.5439 74.5438C24.572 74.0578 24.734 73.0859 25.8679 72.5999L139.743 6.99375C140.715 6.34579 142.335 6.34579 143.307 6.83176L254.914 71.304C255.886 71.7899 255.724 72.7619 254.59 73.2478L249.244 76.3257L143.145 15.0933Z" fill="#251C72"/>
<path opacity="0.7" d="M254.428 73.2479C255.4 72.5999 255.562 71.7899 254.752 71.304L143.145 6.83176C142.173 6.34579 140.715 6.34579 139.581 6.99375L25.8679 72.4379C24.896 73.0859 24.734 73.8958 25.5439 74.3818L137.151 138.854C138.123 139.34 139.581 139.34 140.715 138.692L254.428 73.2479Z" fill="#42E8E0"/>
</g>
<defs>
<filter id="filter0_d" x="0" y="0.941406" width="279" height="314.261" filterUnits="userSpaceOnUse" color-interpolation-filters="sRGB">
<feFlood flood-opacity="0" result="BackgroundImageFix"/>
<feColorMatrix in="SourceAlpha" type="matrix" values="0 0 0 0 0 0 0 0 0 0 0 0 0 0 0 0 0 0 127 0" result="hardAlpha"/>
<feOffset dy="4"/>
<feGaussianBlur stdDeviation="2"/>
<feColorMatrix type="matrix" values="0 0 0 0 0 0 0 0 0 0 0 0 0 0 0 0 0 0 0.2 0"/>
<feBlend mode="normal" in2="BackgroundImageFix" result="effect1_dropShadow"/>
<feBlend mode="normal" in="SourceGraphic" in2="effect1_dropShadow" result="shape"/>
</filter>
<linearGradient id="paint0_linear" x1="168.924" y1="122.525" x2="276.082" y2="122.525" gradientUnits="userSpaceOnUse">
<stop stop-color="#BCBEFF"/>
<stop offset="0.1659" stop-color="#B6B8FC"/>
<stop offset="0.3956" stop-color="#A4A8F5"/>
<stop offset="0.6625" stop-color="#868DEA"/>
<stop offset="0.9554" stop-color="#5E67DA"/>
<stop offset="1" stop-color="#5761D7"/>
</linearGradient>
<linearGradient id="paint1_linear" x1="140.207" y1="124.877" x2="267.908" y2="124.877" gradientUnits="userSpaceOnUse">
<stop stop-color="#BCBEFF"/>
<stop offset="0.1659" stop-color="#B6B8FC"/>
<stop offset="0.3956" stop-color="#A4A8F5"/>
<stop offset="0.6625" stop-color="#868DEA"/>
<stop offset="0.9554" stop-color="#5E67DA"/>
<stop offset="1" stop-color="#5761D7"/>
</linearGradient>
<linearGradient id="paint2_linear" x1="122.569" y1="124.877" x2="352.962" y2="124.877" gradientUnits="userSpaceOnUse">
<stop stop-color="#706EC4"/>
<stop offset="0.0222208" stop-color="#6D6BC2"/>
<stop offset="0.2509" stop-color="#5651AC"/>
<stop offset="0.4865" stop-color="#463F9D"/>
<stop offset="0.7314" stop-color="#3C3494"/>
<stop offset="1" stop-color="#393091"/>
</linearGradient>
<linearGradient id="paint3_linear" x1="111.49" y1="122.525" x2="4.33207" y2="122.525" gradientUnits="userSpaceOnUse">
<stop stop-color="#BCBEFF"/>
<stop offset="0.1659" stop-color="#B6B8FC"/>
<stop offset="0.3956" stop-color="#A4A8F5"/>
<stop offset="0.6625" stop-color="#868DEA"/>
<stop offset="0.9554" stop-color="#5E67DA"/>
<stop offset="1" stop-color="#5761D7"/>
</linearGradient>
<linearGradient id="paint4_linear" x1="140.207" y1="124.877" x2="12.5063" y2="124.877" gradientUnits="userSpaceOnUse">
<stop stop-color="#BCBEFF"/>
<stop offset="0.1659" stop-color="#B6B8FC"/>
<stop offset="0.3956" stop-color="#A4A8F5"/>
<stop offset="0.6625" stop-color="#868DEA"/>
<stop offset="0.9554" stop-color="#5E67DA"/>
<stop offset="1" stop-color="#5761D7"/>
</linearGradient>
<linearGradient id="paint5_linear" x1="157.844" y1="124.877" x2="-72.5479" y2="124.877" gradientUnits="userSpaceOnUse">
<stop stop-color="#706EC4"/>
<stop offset="0.0222208" stop-color="#6D6BC2"/>
<stop offset="0.2509" stop-color="#5651AC"/>
<stop offset="0.4865" stop-color="#463F9D"/>
<stop offset="0.7314" stop-color="#3C3494"/>
<stop offset="1" stop-color="#393091"/>
</linearGradient>
<linearGradient id="paint6_linear" x1="32.7171" y1="195.726" x2="139.875" y2="195.726" gradientUnits="userSpaceOnUse">
<stop stop-color="#BCBEFF"/>
<stop offset="0.1659" stop-color="#B6B8FC"/>
<stop offset="0.3956" stop-color="#A4A8F5"/>
<stop offset="0.6625" stop-color="#868DEA"/>
<stop offset="0.9554" stop-color="#5E67DA"/>
<stop offset="1" stop-color="#5761D7"/>
</linearGradient>
<linearGradient id="paint7_linear" x1="4" y1="198.078" x2="131.701" y2="198.078" gradientUnits="userSpaceOnUse">
<stop stop-color="#BCBEFF"/>
<stop offset="0.1659" stop-color="#B6B8FC"/>
<stop offset="0.3956" stop-color="#A4A8F5"/>
<stop offset="0.6625" stop-color="#868DEA"/>
<stop offset="0.9554" stop-color="#5E67DA"/>
<stop offset="1" stop-color="#5761D7"/>
</linearGradient>
<linearGradient id="paint8_linear" x1="-13.6375" y1="198.078" x2="216.755" y2="198.078" gradientUnits="userSpaceOnUse">
<stop stop-color="#706EC4"/>
<stop offset="0.0222208" stop-color="#6D6BC2"/>
<stop offset="0.2509" stop-color="#5651AC"/>
<stop offset="0.4865" stop-color="#463F9D"/>
<stop offset="0.7314" stop-color="#3C3494"/>
<stop offset="1" stop-color="#393091"/>
</linearGradient>
<linearGradient id="paint9_linear" x1="309.88" y1="242.368" x2="224.351" y2="204.1" gradientUnits="userSpaceOnUse">
<stop stop-color="#BCBEFF"/>
<stop offset="0.1659" stop-color="#B6B8FC"/>
<stop offset="0.3956" stop-color="#A4A8F5"/>
<stop offset="0.6625" stop-color="#868DEA"/>
<stop offset="0.9554" stop-color="#5E67DA"/>
<stop offset="1" stop-color="#5761D7"/>
</linearGradient>
<linearGradient id="paint10_linear" x1="-107.474" y1="218.598" x2="303.718" y2="192.008" gradientUnits="userSpaceOnUse">
<stop stop-color="#BCBEFF"/>
<stop offset="0.1659" stop-color="#B6B8FC"/>
<stop offset="0.3956" stop-color="#A4A8F5"/>
<stop offset="0.6625" stop-color="#868DEA"/>
<stop offset="0.9554" stop-color="#5E67DA"/>
<stop offset="1" stop-color="#5761D7"/>
</linearGradient>
<linearGradient id="paint11_linear" x1="120.63" y1="43.6189" x2="174.12" y2="136.481" gradientUnits="userSpaceOnUse">
<stop stop-color="#BCBEFF"/>
<stop offset="0.1659" stop-color="#B6B8FC"/>
<stop offset="0.3956" stop-color="#A4A8F5"/>
<stop offset="0.6625" stop-color="#868DEA"/>
<stop offset="0.9554" stop-color="#5E67DA"/>
<stop offset="1" stop-color="#5761D7"/>
</linearGradient>
<linearGradient id="paint12_linear" x1="108.335" y1="17.5585" x2="172.079" y2="128.223" gradientUnits="userSpaceOnUse">
<stop stop-color="#BCBEFF"/>
<stop offset="0.1659" stop-color="#B6B8FC"/>
<stop offset="0.3956" stop-color="#A4A8F5"/>
<stop offset="0.6625" stop-color="#868DEA"/>
<stop offset="0.9554" stop-color="#5E67DA"/>
<stop offset="1" stop-color="#5761D7"/>
</linearGradient>
<linearGradient id="paint13_linear" x1="99.5313" y1="2.27378" x2="214.536" y2="201.93" gradientUnits="userSpaceOnUse">
<stop stop-color="#706EC4"/>
<stop offset="0.0222208" stop-color="#6D6BC2"/>
<stop offset="0.2509" stop-color="#5651AC"/>
<stop offset="0.4865" stop-color="#463F9D"/>
<stop offset="0.7314" stop-color="#3C3494"/>
<stop offset="1" stop-color="#393091"/>
</linearGradient>
</defs>
</svg>
