<svg width="121" height="186" viewBox="0 0 121 186" fill="none" xmlns="http://www.w3.org/2000/svg">
<g clip-path="url(#clip0)">
<path d="M120.102 174.51C122.077 178.28 120.641 183.128 116.871 185.102C113.101 187.077 108.254 185.641 106.279 181.871C104.304 178.1 105.74 173.253 109.51 171.278C113.28 169.303 117.948 170.739 120.102 174.51Z" fill="#001A46"/>
<path d="M95.3279 125.317L78.4525 134.473L103.766 180.973C105.202 183.666 110.228 183.846 114.896 181.332C119.564 178.819 122.077 174.51 120.641 171.817L95.3279 125.317Z" fill="#084C94"/>
<path d="M95.3279 125.496C96.7641 128.189 94.2507 132.498 89.5831 135.012C84.9154 137.525 79.8887 137.346 78.4525 134.653C77.0163 131.959 79.5297 127.651 84.1973 125.137C88.865 122.444 93.8917 122.624 95.3279 125.496Z" fill="#2672AB"/>
<path d="M84.3768 113.108L74.3234 118.494L81.5044 131.78C82.4021 133.396 85.2745 133.575 88.1469 131.96C90.8398 130.523 92.4555 128.01 91.5579 126.394L84.3768 113.108Z" fill="#001A46"/>
<path d="M55.8323 6.28381C43.2656 -0.89766 31.9555 -1.79534 23.6973 2.69307C23.5178 2.87261 11.4896 9.51547 11.1306 10.0541C19.5682 3.59076 32.135 3.77029 46.138 11.8494C71.6306 26.5715 92.276 62.1197 92.276 91.3842C92.276 106.286 86.8902 116.699 78.273 121.367C78.8116 121.187 79.7092 120.828 80.6068 120.29C80.7863 120.11 89.0445 115.263 89.224 115.083C97.3027 110.236 102.15 100.002 102.15 85.8186C101.97 56.7336 81.3249 21.0058 55.8323 6.28381Z" fill="#72B5E8"/>
<path d="M46.138 11.8494C20.6454 -2.87259 0 8.97684 0 38.2413C0 67.5058 20.6454 103.054 46.138 117.776C71.6306 132.498 92.276 120.649 92.276 91.5637C92.276 62.4788 71.6306 26.5714 46.138 11.8494ZM45.4199 110.774C23.8769 98.2066 6.28338 68.0444 6.28338 43.2683C6.28338 18.4923 23.8769 8.43823 45.4199 21.0058C66.9629 33.5734 84.5564 63.7355 84.5564 88.5116C84.5564 113.288 66.9629 123.162 45.4199 110.774Z" fill="#D1EBFF"/>
<path d="M53.4985 106.286C31.9555 93.7182 14.362 63.556 14.362 38.78C14.362 28.7259 17.2344 21.0058 22.2611 16.3379C12.5668 18.8514 6.28339 28.5464 6.28339 43.2684C6.28339 68.0445 23.8769 98.2066 45.4199 110.774C58.1662 118.135 69.6558 117.597 76.6573 110.954C70.1944 112.57 62.1157 111.313 53.4985 106.286Z" fill="#72B5E8"/>
<path d="M48.2923 10.7723C36.0846 3.77039 24.954 2.69317 16.6958 6.82251C24.4154 4.66807 35.7255 5.92483 45.9585 11.8495C71.451 26.5715 92.0964 62.1198 92.0964 91.3843C92.0964 106.645 84.7359 117.597 75.7596 121.906C87.0697 118.674 94.2507 107.543 94.2507 90.1275C94.4303 61.0426 73.7849 25.4943 48.2923 10.7723Z" fill="white"/>
<path d="M48.1128 49.7317L37.1617 37.8822L40.3932 36.0869C40.3932 36.0869 42.0089 36.6255 43.9837 36.9845C45.9584 37.5232 47.5742 37.3436 48.6513 36.6255C49.908 35.9073 50.8056 34.2915 51.7033 31.9575L59.4228 36.4459V98.9247L47.9332 92.2818V49.7317H48.1128Z" fill="#F76195"/>
<path d="M44.8813 51.7065L37.1617 47.3976V38.0617C37.1617 38.0617 38.7774 38.6003 40.7522 38.9594C42.727 39.498 44.3427 39.3185 45.4199 38.6003C46.6765 37.8822 47.5742 36.2663 48.4718 33.9324L56.1914 38.4208V100.9L44.8813 94.4362V51.7065Z" fill="#EB4680"/>
<path d="M56.1914 100.9L59.6024 99.1043V36.6255L56.1914 38.4209V100.9Z" fill="#D62D69"/>
<path d="M51.8828 32.1371L48.6513 33.9325L56.1914 38.4209L59.6024 36.6255L51.8828 32.1371Z" fill="#F76195"/>
<path opacity="0.5" d="M56.1914 38.0617L48.6513 33.9324L56.1914 38.4208L59.6024 36.6254L56.1914 38.0617Z" fill="white"/>
</g>
<defs>
<clipPath id="clip0">
<rect width="121" height="186" fill="white"/>
</clipPath>
</defs>
</svg>
