<svg width="406" height="419" viewBox="0 0 406 419" fill="none" xmlns="http://www.w3.org/2000/svg">
<g filter="url(#filter0_d)">
<path d="M206.87 344.911L206.09 344.253C190.027 330.622 181.893 314.122 165.457 303.379L145.945 290.626L147.786 252.613L166.391 243.599C166.391 243.599 192.628 289.825 209.189 297.369C214.915 301.112 219.213 309.587 218.935 316.265L218.904 316.543L239.216 333.398L215.168 345.414C212.991 347.123 210.051 346.991 206.87 344.911Z" fill="url(#paint0_linear)"/>
<path d="M244.383 326.188L245.485 303.2C245.831 296.418 241.465 288.047 235.739 284.304C219.178 276.76 202.521 267.513 185.872 256.631L166.254 243.808L164.413 281.821L184.031 294.644C200.361 305.318 216.577 317.557 232.64 331.187L233.42 331.846C239.108 335.415 244.036 332.97 244.383 326.188Z" fill="url(#paint1_linear)"/>
<path d="M231.912 331.606C215.849 317.976 199.633 305.737 183.303 295.063L163.685 282.24L165.526 244.227L166.905 245.128L165.171 281.124L184.789 293.947C201.12 304.621 217.335 316.86 233.398 330.49L234.178 331.149C236.935 332.951 239.565 333.328 241.543 332.384C239.549 334.51 236.297 334.622 232.692 332.265L231.912 331.606Z" fill="url(#paint2_radial)"/>
<path d="M187.775 283.82L208.684 294.206L202.368 297.385L184.235 285.532L187.775 283.82Z" fill="url(#paint3_linear)"/>
<path d="M187.707 283.925L208.683 294.206L209.513 280.433L188.499 269.978L187.707 283.925Z" fill="url(#paint4_linear)"/>
<path d="M188.499 269.978L187.707 283.925L184.235 285.532L184.958 271.69L188.499 269.978Z" fill="url(#paint5_linear)"/>
<path d="M244.383 326.188L245.485 303.2C245.831 296.418 241.465 288.047 235.739 284.304C219.178 276.76 202.521 267.513 185.872 256.631L166.254 243.808L164.413 281.821L184.031 294.644C200.361 305.318 216.577 317.557 232.64 331.187L233.42 331.846C239.108 335.415 244.036 332.97 244.383 326.188Z" fill="url(#paint6_radial)"/>
<path d="M68.0514 312.778C79.2919 320.125 89.8778 321.527 97.7927 317.754C98.0353 317.614 138.611 297.91 138.853 297.77C146.799 293.719 135.69 292.422 136.345 278.685C137.655 251.21 120.07 216.752 96.953 201.642C85.5004 194.157 92.2232 183.64 84.2401 187.518C83.9975 187.657 42.3906 208.476 42.148 208.616C34.3086 212.737 29.2464 222.103 28.6218 235.562C27.2433 263.141 44.9342 297.668 68.0514 312.778Z" fill="url(#paint7_linear)"/>
<path d="M68.0514 312.778C79.2919 320.125 89.8778 321.527 97.7927 317.754C98.0353 317.614 138.611 297.91 138.853 297.77C146.799 293.719 135.69 292.422 136.345 278.685C137.655 251.21 120.07 216.752 96.953 201.642C85.5004 194.157 92.2232 183.64 84.2401 187.518C83.9975 187.657 42.3906 208.476 42.148 208.616C34.3086 212.737 29.2464 222.103 28.6218 235.562C27.2433 263.141 44.9342 297.668 68.0514 312.778Z" fill="url(#paint8_radial)"/>
<path d="M109.939 291.993C133.056 307.103 152.904 297.113 154.214 269.638C155.525 242.163 137.94 207.706 114.822 192.596C91.7052 177.486 71.857 187.476 70.5468 214.951C69.2366 242.426 86.8214 276.883 109.939 291.993Z" fill="url(#paint9_linear)"/>
<path d="M68.5375 216.173C69.1316 202.992 74.0572 193.835 81.5102 189.61C75.921 194.457 72.2768 202.811 71.6844 213.905C70.3742 241.38 87.959 275.837 111.076 290.947C123.165 298.849 134.305 299.867 142.379 295.154C134.098 302.267 121.609 302.156 107.823 293.145C84.8121 278.105 67.1213 243.578 68.5375 216.173Z" fill="url(#paint10_radial)"/>
<path d="M115.997 288.05C126.919 295.189 137.225 296.557 144.897 292.923C144.897 292.923 152.046 289.395 162.076 284.469C203.895 263.789 251.456 256.553 297.859 264.517C297.966 264.586 298.14 264.551 298.14 264.551C311.15 257.845 221.52 77.2868 208.434 83.6451C186.956 122.989 154.275 155.159 113.987 175.349C100.94 181.881 91.0157 186.877 91.0157 186.877C83.4189 190.858 78.3872 199.945 77.8615 213.022C76.4003 239.802 93.5159 273.356 115.997 288.05Z" fill="url(#paint11_linear)"/>
<g opacity="0.7">
<path opacity="0.7" d="M94.6486 307.05C105.844 304.973 115.592 302.1 122.574 299.059C122.574 299.059 128.965 296.228 137.857 292.348C175.164 276.024 207.871 258.633 275.98 265.574C276.086 265.644 270.119 240.271 270.119 240.271C281.65 235.134 245.206 195.955 165.851 236.089L165.894 238.801C149.704 252.226 138.87 257.223 102.921 273.091C91.2841 278.16 82.4976 282.109 82.4976 282.109C75.7958 285.184 69.0857 298.692 69.8947 301.159C71.3382 306.128 71.91 311.274 94.6486 307.05Z" fill="url(#paint12_radial)"/>
</g>
<path d="M263.727 253.987C283.345 266.81 301.713 269.272 315.496 262.773C315.913 262.598 329.005 256.692 329.422 256.517C343.16 249.392 323.92 247.106 325.046 223.387C327.395 175.566 296.705 115.544 256.409 89.2057C236.473 76.1751 248.249 57.9267 234.261 64.7392C233.844 64.914 219 72.8064 218.583 72.9812C205.057 80.2446 196.079 96.296 194.916 119.841C192.741 167.626 223.431 227.648 263.727 253.987Z" fill="url(#paint13_linear)"/>
<path d="M279.208 246.51C319.504 272.849 353.924 255.384 356.274 207.564C358.623 159.743 327.933 99.7213 287.637 73.3828C247.341 47.0443 212.921 64.5089 210.571 112.329C208.116 160.081 238.912 220.172 279.208 246.51Z" fill="url(#paint14_linear)"/>
<path d="M279.432 240.842C317.078 265.447 349.382 249.135 351.502 204.445C353.621 159.754 324.952 103.588 287.306 78.9822C249.661 54.3766 217.357 70.6888 215.237 115.379C213.118 160.07 241.787 216.236 279.432 240.842Z" fill="url(#paint15_linear)"/>
<path d="M339.112 212.749C341.232 168.059 312.562 111.892 274.917 87.2864C257.526 75.9193 241.393 73.2778 228.703 78.1052C241.984 64.2698 263.659 63.5257 287.306 78.9822C324.952 103.588 353.621 159.754 351.502 204.445C350.278 228.546 340.421 244.321 325.646 250.023C333.42 241.833 338.326 229.234 339.112 212.749Z" fill="url(#paint16_linear)"/>
<path d="M207.714 112.997C208.816 90.0081 220.757 73.3589 229.765 67.9139C219.967 76.4209 212.141 92.3305 211.155 111.667C208.806 159.488 239.496 219.51 279.792 245.849C300.789 259.572 321.781 259.873 335.853 251.774C322.749 261.401 300.316 262.842 276.351 247.178C236.161 220.909 205.364 160.817 207.714 112.997Z" fill="url(#paint17_radial)"/>
<path d="M279.432 240.842C317.078 265.447 349.382 249.135 351.502 204.445C353.621 159.754 324.952 103.588 287.306 78.9822C249.661 54.3766 217.357 70.6888 215.237 115.379C213.118 160.07 241.787 216.236 279.432 240.842Z" fill="url(#paint18_radial)"/>
<path d="M224.759 168.424C230.224 166.778 267.049 155.358 267.049 155.358C269.271 154.275 267.358 157.201 270.54 159.28C276.902 163.439 281.813 173.06 281.443 180.573C281.258 184.329 284.342 184.704 282.121 185.787C282.121 185.787 255.112 205.113 247.779 210.311C238.415 197.778 230.454 183.33 224.759 168.424Z" fill="url(#paint19_linear)"/>
<path d="M274.226 184.205C280.588 188.364 286.176 185.604 286.439 178.023C286.877 170.406 281.898 160.889 275.536 156.73C269.173 152.572 263.586 155.332 263.322 162.913C262.884 170.53 267.863 180.047 274.226 184.205Z" fill="url(#paint20_linear)"/>
<path d="M274.403 179.997C278.751 182.839 282.534 180.988 282.766 175.771C282.997 170.554 279.675 164.059 275.222 161.148C270.874 158.306 267.091 160.157 266.859 165.374C266.696 170.486 269.95 177.086 274.403 179.997Z" fill="url(#paint21_linear)"/>
<path d="M262.769 163.297C262.885 159.645 264.244 157.103 266.359 155.951C264.842 157.346 263.795 159.643 263.633 162.669C263.195 170.285 268.174 179.803 274.537 183.961C277.824 186.11 280.976 186.381 283.16 185.124C280.953 187.111 277.384 187.015 273.672 184.589C267.31 180.43 262.399 170.809 262.769 163.297Z" fill="url(#paint22_radial)"/>
</g>
<defs>
<filter id="filter0_d" x="24.5464" y="61.1116" width="335.854" height="293.482" filterUnits="userSpaceOnUse" color-interpolation-filters="sRGB">
<feFlood flood-opacity="0" result="BackgroundImageFix"/>
<feColorMatrix in="SourceAlpha" type="matrix" values="0 0 0 0 0 0 0 0 0 0 0 0 0 0 0 0 0 0 127 0" result="hardAlpha"/>
<feOffset dy="4"/>
<feGaussianBlur stdDeviation="2"/>
<feColorMatrix type="matrix" values="0 0 0 0 0 0 0 0 0 0 0 0 0 0 0 0 0 0 0.2 0"/>
<feBlend mode="normal" in2="BackgroundImageFix" result="effect1_dropShadow"/>
<feBlend mode="normal" in="SourceGraphic" in2="effect1_dropShadow" result="shape"/>
</filter>
<linearGradient id="paint0_linear" x1="160.221" y1="249.402" x2="208.177" y2="345.754" gradientUnits="userSpaceOnUse">
<stop offset="0.0454545" stop-color="#8566BD"/>
<stop offset="0.6111" stop-color="#8969C3"/>
<stop offset="0.7108" stop-color="#8D6CC4"/>
<stop offset="0.808" stop-color="#9975C7"/>
<stop offset="0.9039" stop-color="#AC83CB"/>
<stop offset="0.9192" stop-color="#B086CC"/>
<stop offset="0.9516" stop-color="#AD84CB"/>
<stop offset="0.973" stop-color="#A47ECA"/>
<stop offset="0.991" stop-color="#9673C6"/>
<stop offset="1" stop-color="#8B6BC4"/>
</linearGradient>
<linearGradient id="paint1_linear" x1="224.591" y1="330.57" x2="188.203" y2="252.385" gradientUnits="userSpaceOnUse">
<stop offset="0.0555556" stop-color="#D1B4E3"/>
<stop offset="0.082573" stop-color="#CFB2E2"/>
<stop offset="0.4229" stop-color="#BE9AD6"/>
<stop offset="0.7376" stop-color="#B48BCF"/>
<stop offset="1" stop-color="#B086CC"/>
</linearGradient>
<radialGradient id="paint2_radial" cx="0" cy="0" r="1" gradientUnits="userSpaceOnUse" gradientTransform="translate(193.282 338.7) rotate(123.17) scale(41.0859 41.7013)">
<stop stop-color="white"/>
<stop offset="1"/>
</radialGradient>
<linearGradient id="paint3_linear" x1="199.33" y1="287.514" x2="180.32" y2="303.689" gradientUnits="userSpaceOnUse">
<stop offset="0.0353535" stop-color="#6B24D6"/>
<stop offset="0.2945" stop-color="#7733DC"/>
<stop offset="0.7943" stop-color="#975CED"/>
<stop offset="1" stop-color="#A56EF4"/>
</linearGradient>
<linearGradient id="paint4_linear" x1="219.327" y1="262.099" x2="177.236" y2="303.283" gradientUnits="userSpaceOnUse">
<stop offset="0.0353535" stop-color="#6B24D6"/>
<stop offset="0.2945" stop-color="#7733DC"/>
<stop offset="0.7943" stop-color="#975CED"/>
<stop offset="1" stop-color="#A56EF4"/>
</linearGradient>
<linearGradient id="paint5_linear" x1="178.603" y1="276.997" x2="187.531" y2="277.798" gradientUnits="userSpaceOnUse">
<stop offset="0.0353535" stop-color="#6B24D6"/>
<stop offset="0.2945" stop-color="#7733DC"/>
<stop offset="0.7943" stop-color="#975CED"/>
<stop offset="1" stop-color="#A56EF4"/>
</linearGradient>
<radialGradient id="paint6_radial" cx="0" cy="0" r="1" gradientUnits="userSpaceOnUse" gradientTransform="translate(174.139 264.127) rotate(123.17) scale(41.5964 42.2195)">
<stop stop-color="#8770B8"/>
<stop offset="1" stop-color="white"/>
</radialGradient>
<linearGradient id="paint7_linear" x1="54.2595" y1="202.288" x2="109.128" y2="312.529" gradientUnits="userSpaceOnUse">
<stop stop-color="#5C1CCC"/>
<stop offset="0.0268398" stop-color="#6323D0"/>
<stop offset="0.0669564" stop-color="#7538DA"/>
<stop offset="0.1151" stop-color="#9259EA"/>
<stop offset="0.1414" stop-color="#A56EF4"/>
<stop offset="0.2273" stop-color="#C994FF"/>
<stop offset="0.2836" stop-color="#AE7AF0"/>
<stop offset="0.3788" stop-color="#7945D1"/>
<stop offset="0.5404" stop-color="#4916A1"/>
<stop offset="0.6229" stop-color="#4B17A4"/>
<stop offset="0.6946" stop-color="#521AAF"/>
<stop offset="0.762" stop-color="#5D1EC1"/>
<stop offset="0.8182" stop-color="#6B24D6"/>
<stop offset="0.9433" stop-color="#5B1DBD"/>
<stop offset="1" stop-color="#531AB0"/>
</linearGradient>
<radialGradient id="paint8_radial" cx="0" cy="0" r="1" gradientUnits="userSpaceOnUse" gradientTransform="translate(111.896 244.674) rotate(123.17) scale(96.0807 97.52)">
<stop offset="0.5808" stop-color="white"/>
<stop offset="0.6411" stop-color="#FBFAFC"/>
<stop offset="0.7135" stop-color="#EEEBF5"/>
<stop offset="0.7923" stop-color="#DAD3E9"/>
<stop offset="0.8754" stop-color="#BEB1D8"/>
<stop offset="0.9613" stop-color="#9986C3"/>
<stop offset="1" stop-color="#8770B8"/>
</radialGradient>
<linearGradient id="paint9_linear" x1="135.892" y1="206.372" x2="88.9008" y2="278.265" gradientUnits="userSpaceOnUse">
<stop offset="0.0353535" stop-color="#A56EF4"/>
<stop offset="0.3636" stop-color="#C994FF"/>
<stop offset="0.5384" stop-color="#B379F5"/>
<stop offset="0.9117" stop-color="#7935DC"/>
<stop offset="1" stop-color="#6B24D6"/>
</linearGradient>
<radialGradient id="paint10_radial" cx="0" cy="0" r="1" gradientUnits="userSpaceOnUse" gradientTransform="translate(106.328 248.915) rotate(123.17) scale(46.3958 47.0908)">
<stop stop-color="white"/>
<stop offset="1"/>
</radialGradient>
<linearGradient id="paint11_linear" x1="141.485" y1="145.993" x2="208.223" y2="280.082" gradientUnits="userSpaceOnUse">
<stop offset="0.010101" stop-color="#C1A1D5"/>
<stop offset="0.0487861" stop-color="#C8ABDA"/>
<stop offset="0.1149" stop-color="#DAC6E6"/>
<stop offset="0.1998" stop-color="#F7F2F9"/>
<stop offset="0.2222" stop-color="white"/>
<stop offset="0.2513" stop-color="#F9F5FB"/>
<stop offset="0.3001" stop-color="#E9DBF2"/>
<stop offset="0.3586" stop-color="#D1B4E3"/>
<stop offset="0.4264" stop-color="#B395D6"/>
<stop offset="0.4949" stop-color="#9C7DCB"/>
<stop offset="0.5583" stop-color="#8E6EC5"/>
<stop offset="0.6111" stop-color="#8969C3"/>
<stop offset="0.755" stop-color="#9471C6"/>
<stop offset="1" stop-color="#B086CC"/>
</linearGradient>
<radialGradient id="paint12_radial" cx="0" cy="0" r="1" gradientUnits="userSpaceOnUse" gradientTransform="translate(206.878 253.432) rotate(143.79) scale(72.4636 51.8687)">
<stop stop-color="#732058"/>
<stop offset="0.0835944" stop-color="#601B49"/>
<stop offset="0.2596" stop-color="#3D112F"/>
<stop offset="0.4388" stop-color="#220A1A"/>
<stop offset="0.6203" stop-color="#0F040C"/>
<stop offset="0.8055" stop-color="#040103"/>
<stop offset="1"/>
</radialGradient>
<linearGradient id="paint13_linear" x1="210.619" y1="75.3324" x2="307.22" y2="269.422" gradientUnits="userSpaceOnUse">
<stop stop-color="#5C1CCC"/>
<stop offset="0.0268398" stop-color="#6323D0"/>
<stop offset="0.0669564" stop-color="#7538DA"/>
<stop offset="0.1151" stop-color="#9259EA"/>
<stop offset="0.1414" stop-color="#A56EF4"/>
<stop offset="0.2273" stop-color="#C994FF"/>
<stop offset="0.2836" stop-color="#AE7AF0"/>
<stop offset="0.3788" stop-color="#7945D1"/>
<stop offset="0.5404" stop-color="#4916A1"/>
<stop offset="0.6229" stop-color="#4B17A4"/>
<stop offset="0.6946" stop-color="#521AAF"/>
<stop offset="0.762" stop-color="#5D1EC1"/>
<stop offset="0.8182" stop-color="#6B24D6"/>
<stop offset="0.9433" stop-color="#5B1DBD"/>
<stop offset="1" stop-color="#531AB0"/>
</linearGradient>
<linearGradient id="paint14_linear" x1="324.299" y1="97.3461" x2="242.503" y2="222.489" gradientUnits="userSpaceOnUse">
<stop offset="0.0353535" stop-color="#A56EF4"/>
<stop offset="0.3636" stop-color="#C994FF"/>
<stop offset="0.5384" stop-color="#B379F5"/>
<stop offset="0.9117" stop-color="#7935DC"/>
<stop offset="1" stop-color="#6B24D6"/>
</linearGradient>
<linearGradient id="paint15_linear" x1="327.4" y1="245.537" x2="239.222" y2="68.3712" gradientUnits="userSpaceOnUse">
<stop offset="0.010101" stop-color="#C1A1D5"/>
<stop offset="0.0487861" stop-color="#C8ABDA"/>
<stop offset="0.1149" stop-color="#DAC6E6"/>
<stop offset="0.1998" stop-color="#F7F2F9"/>
<stop offset="0.2222" stop-color="white"/>
<stop offset="0.2513" stop-color="#F9F5FB"/>
<stop offset="0.3001" stop-color="#E9DBF2"/>
<stop offset="0.3586" stop-color="#D1B4E3"/>
<stop offset="0.4264" stop-color="#B395D6"/>
<stop offset="0.4949" stop-color="#9C7DCB"/>
<stop offset="0.5583" stop-color="#8E6EC5"/>
<stop offset="0.6111" stop-color="#8969C3"/>
<stop offset="0.755" stop-color="#9471C6"/>
<stop offset="1" stop-color="#B086CC"/>
</linearGradient>
<linearGradient id="paint16_linear" x1="349.116" y1="237.64" x2="261.389" y2="61.3803" gradientUnits="userSpaceOnUse">
<stop stop-color="#5C1CCC"/>
<stop offset="0.2273" stop-color="#BA85FF"/>
<stop offset="0.3788" stop-color="#7945D1"/>
<stop offset="0.5404" stop-color="#4916A1"/>
<stop offset="0.6139" stop-color="#4B17A4"/>
<stop offset="0.6777" stop-color="#521AAF"/>
<stop offset="0.7378" stop-color="#5D1EC1"/>
<stop offset="0.7879" stop-color="#6B24D6"/>
<stop offset="0.9339" stop-color="#5B1DBD"/>
<stop offset="1" stop-color="#531AB0"/>
</linearGradient>
<radialGradient id="paint17_radial" cx="0" cy="0" r="1" gradientUnits="userSpaceOnUse" gradientTransform="translate(273.606 171.071) rotate(123.17) scale(80.2189 81.4206)">
<stop stop-color="white"/>
<stop offset="1"/>
</radialGradient>
<radialGradient id="paint18_radial" cx="0" cy="0" r="1" gradientUnits="userSpaceOnUse" gradientTransform="translate(214.607 199.513) rotate(123.17) scale(115.665 117.397)">
<stop stop-color="#8770B8"/>
<stop offset="1" stop-color="white"/>
</radialGradient>
<linearGradient id="paint19_linear" x1="265.23" y1="204.459" x2="249.071" y2="159.299" gradientUnits="userSpaceOnUse">
<stop offset="0.0353535" stop-color="#1E1F21"/>
<stop offset="0.2388" stop-color="#101012"/>
<stop offset="0.2677" stop-color="#0E0E0F"/>
<stop offset="0.345" stop-color="#131415"/>
<stop offset="0.4476" stop-color="#232326"/>
<stop offset="0.5644" stop-color="#3C3D41"/>
<stop offset="0.6869" stop-color="#5D6066"/>
<stop offset="1" stop-color="#37383C"/>
</linearGradient>
<linearGradient id="paint20_linear" x1="281.39" y1="160.547" x2="268.392" y2="180.432" gradientUnits="userSpaceOnUse">
<stop offset="0.0353535" stop-color="#1E1F21"/>
<stop offset="0.3101" stop-color="#2C2E30"/>
<stop offset="0.84" stop-color="#515359"/>
<stop offset="1" stop-color="#5D6066"/>
</linearGradient>
<linearGradient id="paint21_linear" x1="279.356" y1="163.659" x2="270.425" y2="177.322" gradientUnits="userSpaceOnUse">
<stop offset="0.0555556" stop-color="#D1B4E3"/>
<stop offset="0.082573" stop-color="#CFB2E2"/>
<stop offset="0.4229" stop-color="#BE9AD6"/>
<stop offset="0.7376" stop-color="#B48BCF"/>
<stop offset="1" stop-color="#B086CC"/>
</linearGradient>
<radialGradient id="paint22_radial" cx="0" cy="0" r="1" gradientUnits="userSpaceOnUse" gradientTransform="translate(273.212 172.315) rotate(123.17) scale(12.8329 13.0251)">
<stop stop-color="white"/>
<stop offset="1"/>
</radialGradient>
</defs>
</svg>
