<svg width="83" height="82" viewBox="0 0 83 82" fill="none" xmlns="http://www.w3.org/2000/svg">
<g filter="url(#filter0_d)">
<path d="M77.6863 35.0943V35.0113C77.6863 34.8454 77.6033 33.8498 77.4374 32.2734C77.4374 32.1075 77.4374 32.0246 77.3544 31.8586C77.3544 31.6927 77.2715 31.4438 77.2715 31.2779C76.5248 26.3829 74.7825 21.8198 72.2935 17.6716C72.0446 17.2568 71.7128 16.759 71.4639 16.3441C70.0535 14.27 68.4771 12.3618 66.7349 10.5366C65.9052 9.70692 64.9096 8.79431 63.997 8.04762C63.4163 7.54983 62.7526 7.135 62.1718 6.63721L62.0888 6.55424L62.0059 6.47129C61.9229 6.38832 61.757 6.30535 61.674 6.22239C61.2592 5.97349 60.8443 5.64163 60.3465 5.30977C60.3465 5.30977 60.3466 5.30977 60.2636 5.30977C60.0147 5.14384 59.7658 5.06087 59.5169 4.89494C59.4339 4.81198 59.268 4.72901 59.185 4.72901C59.1021 4.64605 59.0191 4.64605 58.9361 4.56308C58.8532 4.48012 58.7702 4.48012 58.6872 4.39716C57.1939 3.5675 55.7005 2.90378 54.1242 2.24006C53.7093 2.07413 53.3775 1.99117 53.2116 1.9082L52.9627 1.82523L52.7138 1.74226H52.6308C52.4649 1.6593 52.2989 1.6593 52.133 1.57633H52.05H51.9671L51.6352 1.49338C51.4693 1.49338 51.3033 1.4104 51.2204 1.32744L50.8885 1.24448C50.8056 1.24448 50.7226 1.24447 50.7226 1.16151C50.7226 1.16151 50.7226 1.16151 50.6396 1.16151H50.5567H50.4737L50.0589 1.07855C49.9759 1.07855 49.81 0.99558 49.727 0.99558C49.6441 0.99558 49.4781 0.912609 49.3951 0.912609C49.3122 0.912609 49.2292 0.912617 49.2292 0.829652C49.1463 0.829652 48.9803 0.746681 48.8144 0.746681L48.5655 0.663724C48.4825 0.663724 48.3166 0.580754 48.2336 0.580754H48.1507C48.0677 0.580754 47.9847 0.580749 47.9018 0.497783H47.7358H47.5699H47.4869H47.404C47.321 0.497783 47.2381 0.497791 47.0721 0.414826C46.9892 0.414826 46.9062 0.414826 46.9062 0.414826C46.8232 0.414826 46.6573 0.414821 46.5743 0.331856L46.3254 0.248898C46.2425 0.248898 46.2425 0.248898 46.1595 0.248898C46.0765 0.248898 45.9936 0.248898 45.9106 0.248898C45.8277 0.248898 45.7447 0.248898 45.6617 0.248898C45.4958 0.248898 45.4128 0.248893 45.2469 0.165928L44.8321 0.0829576C44.7491 0.0829576 44.7491 0.0829576 44.6661 0.0829576C44.5832 0.0829576 44.4172 0.0829576 44.3343 0.0829576C44.1684 0.0829576 44.0024 0.0829652 43.8365 0C43.6706 0 43.5876 0 43.5046 0C43.3387 0 43.2557 0 43.0898 0C42.9239 0 42.8409 0 42.675 0C42.592 0 42.509 0 42.4261 0H42.1772C42.0942 0 42.0942 0 42.0113 0C41.9283 0 41.8453 0 41.8453 0C41.0986 0 40.3519 0 39.6053 0C39.4393 0 39.2734 0 39.1075 0C38.9415 0 38.7756 0 38.6097 0C38.5267 0 38.3608 0 38.2778 0C38.0289 0 37.78 -7.59692e-06 37.5311 0.0829576C37.4482 0.0829576 37.3652 0.0829576 37.2822 0.0829576C36.9504 0.0829576 36.6185 0.165928 36.2867 0.165928C36.1207 0.165928 35.9548 0.165933 35.7889 0.248898H35.7059C35.457 0.248898 35.2081 0.331856 35.0422 0.331856C34.8762 0.331856 34.7103 0.414826 34.5444 0.414826C34.1296 0.497791 33.7977 0.580754 33.6318 0.580754C32.5532 0.829649 31.4747 1.07854 30.3961 1.32744C29.7324 1.49337 29.2346 1.65931 28.4879 1.9082C25.5841 2.90378 22.8463 4.31419 20.2744 5.97349C20.0255 6.13942 19.7766 6.30536 19.5277 6.47129L19.4447 6.55424C19.0299 6.8861 18.6151 7.21797 18.1173 7.46687L18.0343 7.54982C18.0343 7.54982 18.0343 7.54982 17.9514 7.54982C17.8684 7.63279 17.7025 7.71576 17.6195 7.79872C17.3706 7.96465 17.1217 8.21354 16.9558 8.37947C16.8728 8.46244 16.7069 8.62838 16.6239 8.71134C16.375 8.96024 16.1261 9.12617 15.8772 9.37507C15.7943 9.45803 15.7943 9.45803 15.7113 9.54099C14.5498 10.6195 13.8861 11.3662 13.8031 11.4492C13.4712 11.864 13.0564 12.1959 12.7245 12.6107C12.4757 12.8596 12.2268 13.1915 11.9779 13.5233C11.9779 13.5233 11.9779 13.6063 11.8949 13.6063V13.6893C11.3971 14.353 10.8163 15.0997 10.2356 15.9293C9.9867 16.3441 9.65484 16.759 9.40594 17.2568C9.15704 17.6716 8.90815 18.0864 8.74222 18.4183L8.07849 19.7457C7.8296 20.1605 7.66368 20.6583 7.41478 20.9902C6.99996 21.7369 6.66809 22.7325 6.25326 23.811C5.9214 24.7236 5.58955 25.7192 5.34065 26.6318C5.00879 27.8763 4.67692 29.0378 4.59396 29.9504C4.09617 33.352 4.0132 33.6839 4.0132 35.9239C3.93024 38.8277 4.26209 40.8189 4.34506 41.8144C4.75989 44.6353 5.42361 46.7924 5.67251 47.539C6.41919 50.028 7.16589 51.5214 7.82961 52.9318C8.24443 53.8444 8.57629 54.4252 8.99111 55.1718C9.48891 56.0015 10.0697 56.9141 10.6504 57.7438C10.7334 57.8267 10.8163 57.9097 10.8163 58.0756C11.3971 58.9882 12.3097 60.0668 12.9734 60.8135C13.4712 61.3942 14.2179 62.1409 14.7157 62.7217C15.2965 63.3024 16.0432 63.9661 16.6239 64.4639C17.2876 65.0447 17.5365 65.2936 18.2003 65.7084C18.9469 66.2892 19.6936 66.8699 20.5233 67.3677C20.7722 67.5336 21.0211 67.6996 21.27 67.8655C21.6018 68.0314 21.8507 68.1974 22.0996 68.3633C22.2655 68.4463 22.4315 68.5292 22.6804 68.6952C22.6804 68.6952 22.7633 68.6952 22.7633 68.7781C23.0122 68.9441 23.2611 69.027 23.593 69.1929C23.676 69.1929 23.7589 69.2759 23.7589 69.2759C24.6715 69.7737 25.7501 70.2715 27.0775 70.8522C27.3264 70.9352 27.7412 71.1012 28.1561 71.2671C28.322 71.35 28.405 71.35 28.5709 71.433L29.2346 71.6819C29.4005 71.7649 29.5665 71.7649 29.7324 71.8478L29.8983 71.9308L30.1472 72.0138C30.3132 72.0138 30.4791 72.0967 30.5621 72.1797L30.9769 72.2627C32.5532 72.7604 34.1296 73.0094 35.54 73.2582H35.7059C35.7889 73.2582 35.9548 73.2582 36.1207 73.3412C36.2867 73.3412 36.3696 73.3412 36.4526 73.4242L37.2822 73.5071C37.6141 73.5071 38.1119 73.5901 38.5267 73.5901C38.8586 73.5901 39.2734 73.6731 39.6882 73.6731C39.8542 73.6731 40.1031 73.6731 40.269 73.6731C40.7668 73.6731 41.4305 73.6731 42.0113 73.6731C42.509 73.6731 43.2557 73.5901 43.7535 73.5901C44.8321 73.5071 46.3254 73.3412 47.4869 73.1753C48.3166 73.0093 49.4781 72.8434 50.3078 72.5945C50.5567 72.5116 50.7226 72.4286 50.9715 72.4286C51.6352 72.2627 52.2989 72.0138 52.8797 71.8478L53.5434 71.5989C54.0412 71.433 54.622 71.1841 55.1198 71.0182L55.3686 70.9352C56.0324 70.6863 56.779 70.3545 57.4428 70.0226C57.6917 69.8567 58.0235 69.7737 58.2724 69.6078C59.0191 69.1929 60.0147 68.6952 60.6784 68.1974C60.6784 68.1974 60.7614 68.1974 60.7614 68.1144C61.4251 67.6996 62.0059 67.2847 62.6696 66.8699C62.8355 66.787 62.9185 66.704 63.0844 66.621L63.7481 66.1232C63.9141 65.9573 64.08 65.8743 64.2459 65.7084L65.2415 64.8788C65.6563 64.5469 66.32 63.9661 67.3986 62.8876C67.3986 62.8876 67.3986 62.8876 67.4816 62.8046L67.5645 62.7217C68.0623 62.1409 68.726 61.5602 69.3898 60.7305C69.3898 60.7305 69.3898 60.7305 69.4727 60.6475C70.1364 59.9008 71.298 58.4075 72.6254 56.4163C72.6254 56.4163 72.6254 56.4163 72.6254 56.3333C72.8743 55.8356 73.2062 55.4207 73.538 54.84C73.7039 54.5911 73.7869 54.4252 73.9528 54.1763C74.1188 53.8444 74.2847 53.5125 74.4506 53.2636C74.5336 53.1807 74.5336 53.0977 74.6166 53.0147C74.8655 52.5169 75.1144 52.0192 75.3633 51.4384C75.6951 50.6917 76.027 49.945 76.1929 49.3643C76.6077 48.2857 76.9396 47.1242 77.2715 45.8797C77.4374 45.1331 77.6863 44.3864 77.7692 43.7226C77.9352 42.976 78.0181 42.2293 78.1841 41.3996C78.1841 41.2337 78.267 41.0678 78.267 40.9018C78.433 39.8233 78.433 38.7447 78.5159 37.5832V37.5003V37.4173C77.6863 37.0025 77.6863 36.0899 77.6863 35.0943Z" fill="url(#paint0_radial)"/>
<path d="M49.81 10.2047C50.0589 10.7025 50.5567 11.864 48.8974 12.6936C48.7314 12.7766 48.6485 12.7766 48.4825 12.8595C51.4693 12.1129 53.3775 15.1826 52.6308 16.6759C52.3819 17.1737 51.9671 17.3397 51.6352 17.5056C51.4693 17.5886 51.3863 17.5886 51.2204 17.6715C54.1241 17.0078 55.7005 20.2434 54.9538 21.7368C54.7049 22.2346 54.2901 22.4005 53.9582 22.5665C53.7093 22.6494 53.4604 22.7324 53.2115 22.8154C55.7835 22.2346 57.1109 25.3043 56.3642 26.7147C56.1153 27.2125 55.7835 27.3784 55.4516 27.5444C50.4737 29.3696 45.1639 32.1075 40.0201 35.592C39.4393 35.9239 38.8586 35.7579 38.4437 35.1772C36.2037 31.8586 33.9636 28.54 31.8895 25.3043C30.8109 23.645 29.7324 21.9857 28.7368 20.4923C28.5709 20.1605 28.4049 19.9116 30.4791 8.87722C29.9813 8.37942 29.5665 7.88164 29.0687 7.46681C28.7368 6.96902 28.9027 6.5542 29.6494 6.05641C31.3917 5.30972 32.8021 5.30971 34.1296 6.13936C34.3784 6.30529 34.6273 6.55419 34.7933 6.72012C36.3696 8.29645 36.9504 9.6239 37.0333 12.1129C39.9371 10.7024 42.7579 9.45798 45.4958 8.54536C48.3166 7.88164 49.81 10.2047 49.81 10.2047ZM38.5267 38.3298C35.7059 34.3475 32.968 30.3652 30.3131 26.3829C29.2346 24.7236 28.1561 23.0643 27.2434 21.5709C26.7456 20.9072 26.0819 20.8242 25.2523 21.322C23.51 22.6494 21.7677 23.9769 20.1914 25.3043C19.5277 25.968 19.4447 26.6318 19.7766 27.4614C20.6892 29.0377 21.6848 30.6971 22.7633 32.3564C25.3352 36.2557 28.322 40.1551 31.5576 43.8056C32.2213 44.4693 32.968 44.5522 33.6318 44.1374C35.0422 42.8929 36.6185 41.6485 38.2778 40.404C39.0245 39.9062 39.0245 39.1595 38.5267 38.3298Z" fill="#ECF5F9"/>
</g>
<defs>
<filter id="filter0_d" x="0" y="0" width="82.5159" height="81.6731" filterUnits="userSpaceOnUse" color-interpolation-filters="sRGB">
<feFlood flood-opacity="0" result="BackgroundImageFix"/>
<feColorMatrix in="SourceAlpha" type="matrix" values="0 0 0 0 0 0 0 0 0 0 0 0 0 0 0 0 0 0 127 0" result="hardAlpha"/>
<feOffset dy="4"/>
<feGaussianBlur stdDeviation="2"/>
<feColorMatrix type="matrix" values="0 0 0 0 0 0 0 0 0 0 0 0 0 0 0 0 0 0 0.25 0"/>
<feBlend mode="normal" in2="BackgroundImageFix" result="effect1_dropShadow"/>
<feBlend mode="normal" in="SourceGraphic" in2="effect1_dropShadow" result="shape"/>
</filter>
<radialGradient id="paint0_radial" cx="0" cy="0" r="1" gradientUnits="userSpaceOnUse" gradientTransform="translate(43.0686 33.6256) scale(40.928)">
<stop stop-color="#447BC1"/>
<stop offset="0.4717" stop-color="#3663A8"/>
<stop offset="0.7649" stop-color="#30599E"/>
<stop offset="0.828" stop-color="#335DA1"/>
<stop offset="0.8843" stop-color="#3E67A9"/>
<stop offset="0.938" stop-color="#507AB7"/>
<stop offset="0.9897" stop-color="#6893CA"/>
<stop offset="1" stop-color="#6E99CF"/>
</radialGradient>
</defs>
</svg>
