<svg width="77" height="84" viewBox="0 0 77 84" fill="none" xmlns="http://www.w3.org/2000/svg">
<g filter="url(#filter0_d)">
<path d="M38.407 37.7453L34.6873 0.176514L4 22.3086L7.71968 59.8773L42.3127 75.5L73 53.3679L38.407 37.7453Z" fill="#42E8E0"/>
<path d="M7.71968 59.8773L4 22.3086L34.6873 0.176514L38.407 37.7453L7.71968 59.8773Z" fill="#42E8E0"/>
<path d="M42.3127 75.4998L7.71968 59.8772L38.407 37.7451L73 53.3678L42.3127 75.4998Z" fill="#2FD3C7"/>
<path d="M38.407 37.7452L34.6873 0.176514L69.2803 15.7992L73 53.3679L38.407 37.7452Z" fill="#42E8E0"/>
<path d="M38.407 37.7453L34.6873 0.176514L33.3854 1.10643L37.1051 38.8611L71.6981 54.2978L73 53.3679L38.407 37.7453Z" fill="white"/>
</g>
<defs>
<filter id="filter0_d" x="0" y="0.176514" width="77" height="83.3235" filterUnits="userSpaceOnUse" color-interpolation-filters="sRGB">
<feFlood flood-opacity="0" result="BackgroundImageFix"/>
<feColorMatrix in="SourceAlpha" type="matrix" values="0 0 0 0 0 0 0 0 0 0 0 0 0 0 0 0 0 0 127 0" result="hardAlpha"/>
<feOffset dy="4"/>
<feGaussianBlur stdDeviation="2"/>
<feColorMatrix type="matrix" values="0 0 0 0 0 0 0 0 0 0 0 0 0 0 0 0 0 0 0.2 0"/>
<feBlend mode="normal" in2="BackgroundImageFix" result="effect1_dropShadow"/>
<feBlend mode="normal" in="SourceGraphic" in2="effect1_dropShadow" result="shape"/>
</filter>
</defs>
</svg>
