<svg width="28" height="28" viewBox="0 0 28 28" fill="none" xmlns="http://www.w3.org/2000/svg">
<path d="M20.9748 4.89733C20.0864 4.89733 19.3662 5.61752 19.3662 6.50516C19.3662 7.39358 20.0864 8.11377 20.9748 8.11377C21.8625 8.11377 22.5826 7.39358 22.5826 6.50516C22.5826 5.61752 21.8625 4.89733 20.9748 4.89733Z" fill="#1F1F1F"/>
<path d="M13.8267 18.0412C11.4405 18.0412 9.49934 16.1 9.49934 13.7147C9.49934 11.3285 11.4405 9.38731 13.8267 9.38731C16.2121 9.38731 18.1532 11.3285 18.1532 13.7147C18.1532 16.1 16.2121 18.0412 13.8267 18.0412ZM13.8267 6.95928C10.1017 6.95928 7.07129 9.98967 7.07129 13.7147C7.07129 17.4389 10.1017 20.4692 13.8267 20.4692C17.5509 20.4692 20.5813 17.4389 20.5813 13.7147C20.5813 9.98967 17.5509 6.95928 13.8267 6.95928Z" fill="#1F1F1F"/>
<path d="M8.23839 2.5807C5.11808 2.5807 2.57995 5.11881 2.57995 8.23912V19.19C2.57995 22.3103 5.11808 24.8485 8.23839 24.8485H19.1893C22.3096 24.8485 24.8485 22.3103 24.8485 19.19V8.23912C24.8485 5.11881 22.3096 2.5807 19.1893 2.5807H8.23839ZM19.1893 27.4292H8.23839C3.69475 27.4292 0 23.7329 0 19.19V8.23912C0 3.69548 3.69475 -2.86102e-05 8.23839 -2.86102e-05H19.1893C23.7321 -2.86102e-05 27.4285 3.69548 27.4285 8.23912V19.19C27.4285 23.7329 23.7321 27.4292 19.1893 27.4292Z" fill="#1F1F1F"/>
</svg>
