<svg xmlns="http://www.w3.org/2000/svg" viewBox="0 0 290.3 84.71"><g id="Layer_2" data-name="Layer 2"><g id="Слой_1" data-name="Слой 1"><path class="cls-1" d="M29.63,84.71a1.05,1.05,0,0,1,.39-.13c3.81-.21,6.79-2.07,9.38-4.7a27.11,27.11,0,0,0,4-5.42.78.78,0,0,1,.63-.43,11.11,11.11,0,0,0,6.44-3.81,27.4,27.4,0,0,0,5.27-9.14,50.28,50.28,0,0,0,2.69-11.49,62,62,0,0,0,.35-11.15A50,50,0,0,0,54.51,20a22.31,22.31,0,0,0-5-7.15A10.51,10.51,0,0,0,43.61,10a.74.74,0,0,1-.43-.33,26.25,26.25,0,0,0-4.75-5.9A13.91,13.91,0,0,0,31.73.22a11.69,11.69,0,0,0-9,2,22.24,22.24,0,0,0-6.43,7,1.66,1.66,0,0,1-1.32.89A10,10,0,0,0,9.32,13a23.16,23.16,0,0,0-5.14,7.56A46.23,46.23,0,0,0,.69,32.79,61.64,61.64,0,0,0,.07,44.93a50.29,50.29,0,0,0,4.3,19,22.33,22.33,0,0,0,5.07,7.27,10.36,10.36,0,0,0,5.82,2.85.8.8,0,0,1,.45.37A28.24,28.24,0,0,0,19.82,80a14.84,14.84,0,0,0,7.24,4.33c.66.15,1.36.19,2,.29A3.61,3.61,0,0,1,29.63,84.71Zm0-83.45L48.36,41.84H10.82C17.08,28.32,23.3,14.86,29.59,1.26ZM29.25.64,29,1.31Q19.6,21.55,10.23,41.75a1.35,1.35,0,0,0,0,1.25q3.84,8.2,7.63,16.44,5.28,11.41,10.57,22.83c.25.55.49,1.1.75,1.68L29,84a11.78,11.78,0,0,1-4.74-1.4,18.87,18.87,0,0,1-6-5.38,39,39,0,0,1-5.5-10.57A72.07,72.07,0,0,1,8.84,43.9a79.75,79.75,0,0,1,.89-13.72,62.22,62.22,0,0,1,3.68-14,33.79,33.79,0,0,1,6.44-10.7,15,15,0,0,1,6.66-4.42A8.23,8.23,0,0,1,29.25.64ZM30,84c.09-.21.14-.35.2-.48L34,75.29Q41.55,59,49.1,42.6a.64.64,0,0,0,0-.49L43.37,29.72,30.56,2c-.21-.45-.4-.9-.63-1.4.23,0,.38,0,.53,0a10.49,10.49,0,0,1,3.44.86,17.64,17.64,0,0,1,6.92,5.75,40.4,40.4,0,0,1,6,12A71.59,71.59,0,0,1,50.22,38a81.46,81.46,0,0,1-.42,13.52,70.36,70.36,0,0,1-2.38,12,43.53,43.53,0,0,1-6,13,19.23,19.23,0,0,1-6.43,6A11.41,11.41,0,0,1,30,84ZM48.56,62a83.47,83.47,0,0,0,.23-38.31,7.69,7.69,0,0,1,.52.92q4,8.82,8.08,17.64a.8.8,0,0,1,0,.57Q53.2,52,49,61.22C48.84,61.48,48.69,61.72,48.56,62Zm-38-.26c-.12-.21-.24-.42-.34-.64Q6,52,1.82,42.87a1,1,0,0,1,0-.67q4-8.84,8.11-17.67c.09-.2.2-.39.31-.59A84.93,84.93,0,0,0,10.52,61.71Z"/><path class="cls-2" d="M84.43,34.36l0,.09a5.94,5.94,0,0,1-2,4.66A7.48,7.48,0,0,1,77.18,41a7,7,0,0,1-5.47-2.38,8.76,8.76,0,0,1-2.12-6V29.05A8.79,8.79,0,0,1,71.71,23a7,7,0,0,1,5.47-2.39,7.71,7.71,0,0,1,5.35,1.79,5.91,5.91,0,0,1,1.93,4.74l0,.08H81.86a4.45,4.45,0,0,0-1.22-3.29,4.7,4.7,0,0,0-3.46-1.21,4.2,4.2,0,0,0-3.57,1.81A7.36,7.36,0,0,0,72.27,29v3.55a7.38,7.38,0,0,0,1.34,4.51,4.2,4.2,0,0,0,3.57,1.81,4.74,4.74,0,0,0,3.46-1.2,4.47,4.47,0,0,0,1.22-3.33Z"/><path class="cls-2" d="M90.91,40.7H88.22V20.9h2.69Z"/><path class="cls-2" d="M98.5,32.12V40.7H95.82V20.91h6.77a7.55,7.55,0,0,1,5,1.44,5.17,5.17,0,0,1,1.71,4.19,4.46,4.46,0,0,1-.79,2.65,5.35,5.35,0,0,1-2.32,1.8,4,4,0,0,1,2.34,1.72,5.61,5.61,0,0,1,.72,2.95v1.86a6,6,0,0,0,.2,1.66,2.5,2.5,0,0,0,.71,1.2v.32h-2.76a2.19,2.19,0,0,1-.68-1.36,11.18,11.18,0,0,1-.15-1.85V35.68a3.59,3.59,0,0,0-.94-2.58,3.35,3.35,0,0,0-2.52-1Zm0-2.11h3.82a5,5,0,0,0,3.27-.86,3.29,3.29,0,0,0,1-2.63,3.41,3.41,0,0,0-1-2.6,4.31,4.31,0,0,0-3-.91H98.5Z"/><path class="cls-2" d="M127.67,34.36l0,.09a5.91,5.91,0,0,1-2,4.66A7.48,7.48,0,0,1,120.42,41,7,7,0,0,1,115,38.61a8.76,8.76,0,0,1-2.12-6V29.05A8.79,8.79,0,0,1,115,23a7,7,0,0,1,5.47-2.39,7.71,7.71,0,0,1,5.35,1.79,5.91,5.91,0,0,1,1.93,4.74l0,.08H125.1a4.41,4.41,0,0,0-1.22-3.29,4.7,4.7,0,0,0-3.46-1.21,4.21,4.21,0,0,0-3.57,1.81A7.36,7.36,0,0,0,115.51,29v3.55a7.38,7.38,0,0,0,1.34,4.51,4.21,4.21,0,0,0,3.57,1.81,4.74,4.74,0,0,0,3.46-1.2,4.43,4.43,0,0,0,1.22-3.33Z"/><path class="cls-2" d="M133.86,38.61h9.66V40.7H131.18V20.9h2.68Z"/><path class="cls-2" d="M157.31,31.52h-8.13v7.09h9.52V40.7H146.5V20.9h12.05V23h-9.37v6.4h8.13Z"/><path class="cls-2" d="M183.92,32.57a8.43,8.43,0,0,1-2.25,6,7.65,7.65,0,0,1-5.84,2.4,7.23,7.23,0,0,1-5.64-2.4,8.59,8.59,0,0,1-2.17-6V29.05a8.64,8.64,0,0,1,2.17-6,7.21,7.21,0,0,1,5.64-2.41,7.65,7.65,0,0,1,5.84,2.4,8.48,8.48,0,0,1,2.25,6ZM181.24,29a6.66,6.66,0,0,0-1.47-4.46,4.89,4.89,0,0,0-3.94-1.74,4.55,4.55,0,0,0-3.74,1.74A6.89,6.89,0,0,0,170.7,29v3.55a7,7,0,0,0,1.39,4.49,4.55,4.55,0,0,0,3.74,1.74,4.9,4.9,0,0,0,3.95-1.74,6.74,6.74,0,0,0,1.46-4.49Z"/><path class="cls-2" d="M198.81,31.94h-8.35V40.7h-2.68V20.9H200.2V23h-9.74v6.82h8.35Z"/><path class="cls-2" d="M214.05,33.83l.34,2.6h.08l.46-2.61,3.51-12.93h2.63l3.53,12.93.47,2.66h.08l.36-2.66,2.83-12.93h2.91l-4.78,19.8h-2.4l-4-13.74-.29-1.78h-.09L219.45,27l-4,13.74H213l-4.77-19.8h2.89Z"/><path class="cls-2" d="M249,40.7h-2.68V32h-9.61V40.7h-2.68V20.9h2.68v9h9.61v-9H249Z"/><path class="cls-2" d="M256.62,40.7h-2.69V20.9h2.69Z"/><path class="cls-2" d="M275,23h-6.53V40.7h-2.68V23h-6.45V20.9H275Z"/><path class="cls-2" d="M288.62,31.52h-8.14v7.09H290V40.7H277.8V20.9h12.05V23h-9.37v6.4h8.14Z"/><path class="cls-2" d="M70.27,50.54V60.63h4.35V50.54h.91V60.63h4.33V50.54h.92V61.4H69.35V50.54Z"/><path class="cls-2" d="M85.5,57.7H84.26v3.7h-.91V53.33h.91v3.58h1.22l3-3.58h1.13l-3.31,3.91,3.68,4.16H88.76Z"/><path class="cls-2" d="M90.57,57.24A4.75,4.75,0,0,1,91,55.15a3.41,3.41,0,0,1,3.15-2,3.31,3.31,0,0,1,2.61,1.13,4.32,4.32,0,0,1,1,3v.19a4.84,4.84,0,0,1-.45,2.11A3.37,3.37,0,0,1,96.06,61a3.51,3.51,0,0,1-1.88.51,3.34,3.34,0,0,1-2.61-1.13,4.38,4.38,0,0,1-1-3Zm.9.25a3.66,3.66,0,0,0,.75,2.38,2.53,2.53,0,0,0,3.92,0,3.79,3.79,0,0,0,.75-2.45v-.18a4.08,4.08,0,0,0-.34-1.69,2.79,2.79,0,0,0-1-1.19,2.49,2.49,0,0,0-1.42-.42,2.37,2.37,0,0,0-2,.94,3.79,3.79,0,0,0-.75,2.45Z"/><path class="cls-2" d="M105.71,53.33V61.4h-.89V54.1h-3.31l-.14,3a12.19,12.19,0,0,1-.34,2.56,2.46,2.46,0,0,1-.73,1.3A1.89,1.89,0,0,1,99,61.4h-.34v-.79h.27a1.17,1.17,0,0,0,1.11-.75,8.21,8.21,0,0,0,.44-2.61l.16-3.91Z"/><path class="cls-2" d="M113.21,61.4a4.34,4.34,0,0,1-.18-1.13,3.08,3.08,0,0,1-1.19.95,3.72,3.72,0,0,1-1.55.33,2.72,2.72,0,0,1-1.88-.65,2.11,2.11,0,0,1-.72-1.64,2.17,2.17,0,0,1,1-1.87,4.8,4.8,0,0,1,2.74-.68H113v-.92a1.75,1.75,0,0,0-.54-1.36,2.19,2.19,0,0,0-1.55-.5,2.43,2.43,0,0,0-1.55.48,1.41,1.41,0,0,0-.61,1.15h-.9a2.08,2.08,0,0,1,.9-1.67,3.45,3.45,0,0,1,2.2-.7,3.14,3.14,0,0,1,2.13.67,2.41,2.41,0,0,1,.8,1.89v3.82a4.8,4.8,0,0,0,.25,1.75v.09Zm-2.81-.64a3,3,0,0,0,1.6-.43,2.62,2.62,0,0,0,1-1.16V57.39h-1.6a4.06,4.06,0,0,0-2.09.49,1.48,1.48,0,0,0-.75,1.31,1.42,1.42,0,0,0,.5,1.12A1.9,1.9,0,0,0,110.4,60.76Z"/><path class="cls-2" d="M122.71,53.94a2.31,2.31,0,0,0-1.55.53,1.76,1.76,0,0,0-.62,1.38h-.86a2.34,2.34,0,0,1,.4-1.34,2.79,2.79,0,0,1,1.12-1,3.26,3.26,0,0,1,1.51-.36,3.09,3.09,0,0,1,2.42,1,4.18,4.18,0,0,1,1,2.73v.57a4.85,4.85,0,0,1-.43,2.09,3.37,3.37,0,0,1-1.21,1.44,3.29,3.29,0,0,1-1.8.5,3.08,3.08,0,0,1-2.18-.8,2.73,2.73,0,0,1-.85-2.08h.86a2,2,0,0,0,.62,1.54,2.17,2.17,0,0,0,1.55.59,2.19,2.19,0,0,0,1.8-.84,3.64,3.64,0,0,0,.74-2.26H121.6V57h3.65a3.62,3.62,0,0,0-.74-2.19A2.2,2.2,0,0,0,122.71,53.94Z"/><path class="cls-2" d="M134.38,61.4h-.89V57.7h-4.35v3.7h-.9V53.33h.9V57h4.35V53.33h.89Z"/><path class="cls-2" d="M139.9,61.55A3.47,3.47,0,0,1,138,61a3.41,3.41,0,0,1-1.3-1.41,4.39,4.39,0,0,1-.46-2v-.33a4.75,4.75,0,0,1,.45-2.09A3.62,3.62,0,0,1,138,53.71a3.15,3.15,0,0,1,1.74-.53,2.92,2.92,0,0,1,2.34,1,4.09,4.09,0,0,1,.86,2.74v.5h-5.76v.18a3.35,3.35,0,0,0,.79,2.28,2.49,2.49,0,0,0,2,.92,3,3,0,0,0,1.26-.26,2.9,2.9,0,0,0,1-.84l.56.43A3.26,3.26,0,0,1,139.9,61.55Zm-.17-7.61a2.23,2.23,0,0,0-1.69.74,3.4,3.4,0,0,0-.84,2H142v-.09a3,3,0,0,0-.66-1.9A2.06,2.06,0,0,0,139.73,53.94Z"/><path class="cls-2" d="M151.16,57.45a4.83,4.83,0,0,1-.84,3,2.64,2.64,0,0,1-2.23,1.11,3,3,0,0,1-2.54-1.16v4.12h-.89V53.33h.83l0,1.14a2.88,2.88,0,0,1,2.53-1.29,2.69,2.69,0,0,1,2.28,1.09,5,5,0,0,1,.82,3Zm-.89-.16a4.18,4.18,0,0,0-.64-2.44,2,2,0,0,0-1.77-.9,2.36,2.36,0,0,0-2.31,1.55v3.87a2.34,2.34,0,0,0,.92,1.06,2.56,2.56,0,0,0,1.41.37,2,2,0,0,0,1.75-.9A4.53,4.53,0,0,0,150.27,57.29Z"/><path class="cls-2" d="M158.17,54.1h-4.08v7.3h-.9V53.33h5Z"/><path class="cls-2" d="M162.56,61.55a3.52,3.52,0,0,1-1.87-.51,3.45,3.45,0,0,1-1.29-1.41,4.39,4.39,0,0,1-.46-2v-.33a4.75,4.75,0,0,1,.45-2.09,3.62,3.62,0,0,1,1.26-1.47,3.1,3.1,0,0,1,1.74-.53,2.9,2.9,0,0,1,2.33,1,4,4,0,0,1,.87,2.74v.5h-5.77v.18a3.4,3.4,0,0,0,.79,2.28,2.52,2.52,0,0,0,2,.92,3,3,0,0,0,1.27-.26,2.87,2.87,0,0,0,1-.84l.56.43A3.23,3.23,0,0,1,162.56,61.55Zm-.17-7.61a2.25,2.25,0,0,0-1.7.74,3.4,3.4,0,0,0-.84,2h4.85v-.09a3,3,0,0,0-.67-1.9A2,2,0,0,0,162.39,53.94Z"/><path class="cls-2" d="M173,54.09H170.1V61.4h-.89V54.09h-2.83v-.76H173Z"/><path class="cls-2" d="M179.81,53.33h.89V61.4h-.89V54.77l-4.36,6.63h-.89V53.33h.89V60Z"/><path class="cls-2" d="M188.84,61.4h-.9V58a6.11,6.11,0,0,1-2.11.41,3.26,3.26,0,0,1-2.33-.71,3,3,0,0,1-.75-2.2V53.33h.89v2.13a2.39,2.39,0,0,0,.51,1.67,2.28,2.28,0,0,0,1.68.51,6.91,6.91,0,0,0,2.11-.39V53.33h.9Z"/><path class="cls-2" d="M194.35,61.55a3.51,3.51,0,0,1-1.86-.51,3.45,3.45,0,0,1-1.29-1.41,4.4,4.4,0,0,1-.47-2v-.33a4.75,4.75,0,0,1,.46-2.09,3.67,3.67,0,0,1,1.25-1.47,3.15,3.15,0,0,1,1.75-.53,2.9,2.9,0,0,1,2.33,1,4,4,0,0,1,.86,2.74v.5h-5.76v.18a3.4,3.4,0,0,0,.79,2.28,2.51,2.51,0,0,0,2,.92,3,3,0,0,0,1.27-.26,3,3,0,0,0,1-.84l.56.43A3.25,3.25,0,0,1,194.35,61.55Zm-.16-7.61a2.25,2.25,0,0,0-1.7.74,3.4,3.4,0,0,0-.84,2h4.85v-.09a3,3,0,0,0-.67-1.9A2,2,0,0,0,194.19,53.94Z"/><path class="cls-2" d="M202.11,60.8a2.36,2.36,0,0,0,1.56-.53,1.82,1.82,0,0,0,.68-1.36h.86a2.54,2.54,0,0,1-.46,1.35,2.92,2.92,0,0,1-1.13,1,3.38,3.38,0,0,1-1.51.34,3.14,3.14,0,0,1-2.52-1.1,4.48,4.48,0,0,1-.93-3v-.27a5,5,0,0,1,.42-2.11,3.18,3.18,0,0,1,1.2-1.42,3.23,3.23,0,0,1,1.82-.5,3.09,3.09,0,0,1,2.19.79,2.86,2.86,0,0,1,.92,2.08h-.86a2.15,2.15,0,0,0-2.25-2.11,2.24,2.24,0,0,0-1.88.87,4,4,0,0,0-.66,2.45v.26a3.9,3.9,0,0,0,.66,2.41A2.26,2.26,0,0,0,202.11,60.8Z"/><path class="cls-2" d="M209.19,57.7H208v3.7h-.9V53.33h.9v3.58h1.23l3-3.58h1.12L210,57.24l3.68,4.16h-1.18Z"/><path class="cls-2" d="M220.22,53.33h.9V61.4h-.9V54.77l-4.36,6.63H215V53.33h.89V60Z"/><path class="cls-2" d="M226,56.6l2.18-3.27h1.06l-2.74,4,2.86,4.11h-1.05L226.05,58l-2.3,3.42H222.7l2.85-4.11-2.74-4h1.05Z"/><path class="cls-2" d="M240.85,61.4H240V54.1h-4.35v7.3h-.9V53.33h6.14Z"/><path class="cls-2" d="M249.73,57.45a4.82,4.82,0,0,1-.83,3,2.66,2.66,0,0,1-2.24,1.11,3,3,0,0,1-2.54-1.16v4.12h-.89V53.33h.83l.05,1.14a2.86,2.86,0,0,1,2.53-1.29,2.69,2.69,0,0,1,2.27,1.09,5,5,0,0,1,.82,3Zm-.89-.16a4.18,4.18,0,0,0-.63-2.44,2.06,2.06,0,0,0-1.77-.9,2.49,2.49,0,0,0-1.41.4,2.46,2.46,0,0,0-.91,1.15v3.87a2.4,2.4,0,0,0,.92,1.06,2.6,2.6,0,0,0,1.41.37,2,2,0,0,0,1.76-.9A4.53,4.53,0,0,0,248.84,57.29Z"/><path class="cls-2" d="M256.81,61.4a4,4,0,0,1-.17-1.13,3.19,3.19,0,0,1-1.2.95,3.71,3.71,0,0,1-1.54.33A2.73,2.73,0,0,1,252,60.9a2.11,2.11,0,0,1-.72-1.64,2.16,2.16,0,0,1,1-1.87,4.75,4.75,0,0,1,2.73-.68h1.62v-.92a1.78,1.78,0,0,0-.53-1.36,2.23,2.23,0,0,0-1.56-.5,2.4,2.4,0,0,0-1.54.48,1.42,1.42,0,0,0-.62,1.15h-.89a2.1,2.1,0,0,1,.89-1.67,3.46,3.46,0,0,1,2.21-.7,3.14,3.14,0,0,1,2.13.67,2.44,2.44,0,0,1,.8,1.89v3.82a4.84,4.84,0,0,0,.24,1.75v.09ZM254,60.76a3,3,0,0,0,1.6-.43,2.56,2.56,0,0,0,1-1.16V57.39H255a4.08,4.08,0,0,0-2.09.49,1.48,1.48,0,0,0-.75,1.31,1.45,1.45,0,0,0,.5,1.12A1.91,1.91,0,0,0,254,60.76Z"/><path class="cls-2" d="M262.09,57.7h-1.24v3.7H260V53.33h.9v3.58h1.23l3-3.58h1.13l-3.32,3.91,3.68,4.16h-1.18Z"/><path class="cls-2" d="M273.62,54.09h-2.94V61.4h-.9V54.09H267v-.76h6.67Z"/><path class="cls-2" d="M280.38,53.33h.9V61.4h-.9V54.77L276,61.4h-.89V53.33H276V60Z"/><path class="cls-2" d="M285.86,57.7h-1.24v3.7h-.9V53.33h.9v3.58h1.23l3-3.58h1.13l-3.32,3.91,3.68,4.16h-1.18Z"/></g></g></svg>