<svg xmlns="http://www.w3.org/2000/svg" viewBox="0 0 884.43 181.13" width="50"><g id="Layer_2" data-name="Layer 2"><g id="Слой_8" data-name="Слой 8"><path class="cls-1" d="M109.28,6a84.34,84.34,0,0,1,26,18.12L111.1,48.3Q99,33.81,77.28,33.81T49.51,44.07q-6,10.27,0,17.51T77.28,72.45A90.07,90.07,0,0,1,119,87.54q18.7,12.69,18.71,40.46,0,21.74-20,37.43t-46.56,15.7q-25.23,0-42.14-7.24A91.67,91.67,0,0,1,0,154.56l24.16-24.15q12.06,14.49,41.05,16.91,24.15,0,30.13-10.27t0-20.52q-6-10.26-30.13-12.69A97.21,97.21,0,0,1,25.36,90.56Q7.24,79.7,7.25,53.13q0-24,20.59-38.59T70.16,0Q95.39,0,109.28,6Z"/></g><g id="Слой_7" data-name="Слой 7"><path class="cls-1" d="M170,181.13V0H182.1l78.49,89.35L339.2,0h12.08V181.13H315.06l-.13-105.06-54.34,60.38L206.25,76.07V181.13Z"/></g><g id="Слой_6" data-name="Слой 6"><path class="cls-1" d="M593,0V147.32h96.61v33.81H556.8V0Z"/></g><g id="Слой_5" data-name="Слой 5"><path class="cls-1" d="M729.26,155.11q-26-26-26-64.55t26-64.6q25.95-26,64.6-26t64.6,26q26,25.95,26,64.6t-26,64.6q-26,26-64.6,26T729.26,155.11ZM794,147.32q24,0,39.13-16.3t15.09-40.46q0-24.15-15.09-40.45t-39.37-16.3q-24,0-39.12,16.3t-15.1,40.45q0,24.15,15.1,40.46T794,147.32Z"/></g><g id="Слой_4" data-name="Слой 4"><rect class="cls-1" x="387.5" y="0.02" width="133.3" height="33.97"/></g><g id="Слой_3" data-name="Слой 3"><rect class="cls-1" x="387.5" y="147.13" width="133.3" height="33.97"/></g><g id="Слой_2" data-name="Слой 2"><rect class="cls-1" x="399.89" y="72.41" width="108.53" height="33.97"/></g></g></svg>