<svg width="24" height="30" viewBox="0 0 24 30" fill="none" xmlns="http://www.w3.org/2000/svg">
<path d="M23.5788 14.9956C23.4387 14.3584 23.128 13.8241 22.6477 13.3924C22.1671 12.9607 21.6139 12.707 20.9875 12.6314C19.0012 12.4155 16.0055 12.3076 11.9999 12.3076C7.99451 12.3076 5.00408 12.4156 3.02837 12.6314C2.39158 12.707 1.83562 12.9607 1.36042 13.3924C0.885336 13.8243 0.572244 14.3586 0.421029 14.9956C0.140381 16.2481 0 18.1373 0 20.6636C0 23.2329 0.140381 25.1223 0.421029 26.3316C0.56158 26.9682 0.872006 27.503 1.35242 27.9345C1.83284 28.3664 2.38613 28.6146 3.0122 28.6795C4.99886 28.9062 7.99485 29.0195 12 29.0195C16.005 29.0195 19.0015 28.9062 20.9874 28.6795C21.6138 28.6146 22.1642 28.3664 22.6394 27.9345C23.1146 27.503 23.4277 26.9682 23.5787 26.3316C23.8594 25.079 23.9999 23.1898 23.9999 20.6636C23.9999 18.0942 23.8593 16.2048 23.5788 14.9956ZM6.85059 16.6315H5.11786V25.8455H3.49858V16.6315H1.79812V15.1093H6.85064V16.6315H6.85059ZM11.2228 25.8455H9.78157V24.9709C9.19861 25.6297 8.6478 25.9588 8.12961 25.9588C7.63309 25.9588 7.31994 25.759 7.19056 25.3597C7.10429 25.1006 7.0609 24.7063 7.0609 24.1774V17.8458H8.50215V23.7403C8.50215 24.0856 8.50759 24.2746 8.51848 24.3071C8.55087 24.5338 8.66414 24.6471 8.85857 24.6471C9.15 24.6471 9.45787 24.4204 9.78163 23.967V17.8458H11.2229V25.8455H11.2228ZM16.7288 23.4487C16.7288 24.2368 16.6803 24.7769 16.5835 25.0685C16.3995 25.6619 16.0166 25.9588 15.4337 25.9588C14.9154 25.9588 14.4135 25.6619 13.9274 25.0685V25.8457H12.4864V15.1093H13.9274V18.6233C14.3919 18.0406 14.8937 17.7491 15.4337 17.7491C16.0166 17.7491 16.3995 18.0515 16.5835 18.6559C16.6802 18.9366 16.7288 19.4709 16.7288 20.2591V23.4487ZM22.2023 22.121H19.3037V23.5299C19.3037 24.2748 19.5518 24.6471 20.0485 24.6471C20.4046 24.6471 20.6207 24.453 20.6962 24.064C20.7176 23.9561 20.7286 23.6269 20.7286 23.0764H22.2022V23.2869C22.2022 23.816 22.1912 24.1289 22.1698 24.2263C22.1376 24.5174 22.0246 24.809 21.8298 25.1005C21.4411 25.6728 20.8577 25.9588 20.0805 25.9588C19.3359 25.9588 18.7528 25.6835 18.3316 25.1331C18.0187 24.7337 17.8623 24.1075 17.8623 23.2546V20.4529C17.8623 19.6 18.0133 18.9739 18.3153 18.5744C18.7366 18.0239 19.3141 17.7487 20.0485 17.7487C20.7719 17.7487 21.3445 18.0239 21.765 18.5744C22.0569 18.9739 22.2023 19.6 22.2023 20.4529V22.121Z" fill="#1F1F1F"/>
<path d="M14.6574 19.0601C14.409 19.0601 14.1663 19.1792 13.9287 19.4164V24.2906C14.1663 24.528 14.409 24.6467 14.6574 24.6467C15.0782 24.6467 15.2892 24.2853 15.2892 23.5617V20.1451C15.2892 19.4216 15.0786 19.0601 14.6574 19.0601Z" fill="#1F1F1F"/>
<path d="M20.0314 19.0601C19.5456 19.0601 19.3027 19.4273 19.3027 20.161V20.9059H20.76V20.161C20.76 19.4269 20.517 19.0601 20.0314 19.0601Z" fill="#1F1F1F"/>
<path d="M5.91164 6.46132V10.85H7.53093V6.46132L9.49008 0H7.83835L6.73742 4.25901L5.58754 0H3.87109C4.17341 0.906946 4.52428 1.91627 4.92375 3.02831C5.43122 4.51805 5.76031 5.6626 5.91164 6.46132Z" fill="#1F1F1F"/>
<path d="M11.6606 10.9633C12.4056 10.9633 12.9776 10.688 13.3771 10.1374C13.6795 9.73794 13.8305 9.10092 13.8305 8.22659V5.39254C13.8305 4.52899 13.6791 3.89724 13.3771 3.49777C12.9776 2.94719 12.4056 2.67188 11.6606 2.67188C10.9371 2.67188 10.3702 2.94719 9.96014 3.49777C9.65799 3.89724 9.50684 4.52899 9.50684 5.39254V8.22653C9.50684 9.09009 9.65782 9.72716 9.96014 10.1374C10.3704 10.688 10.937 10.9633 11.6606 10.9633ZM10.9641 5.101C10.9641 4.35605 11.1963 3.98357 11.6606 3.98357C12.1249 3.98357 12.3568 4.35605 12.3568 5.101V8.50162C12.3568 9.25758 12.1249 9.63516 11.6606 9.63516C11.1963 9.63516 10.9641 9.25736 10.9641 8.50162V5.101Z" fill="#1F1F1F"/>
<path d="M16.1134 10.9637C16.6535 10.9637 17.2096 10.629 17.7817 9.95953V10.8502H19.2553V2.76953H17.7817V8.93931C17.4577 9.40362 17.1502 9.63555 16.8583 9.63555C16.6638 9.63555 16.5504 9.51683 16.5182 9.27935C16.5074 9.25774 16.502 9.06863 16.502 8.71249V2.76953H15.0283V9.15003C15.0283 9.70049 15.0718 10.1052 15.158 10.3645C15.2985 10.7639 15.6168 10.9637 16.1134 10.9637Z" fill="#1F1F1F"/>
</svg>
